<svg width="83" height="47" viewBox="0 0 83 47" fill="none" xmlns="http://www.w3.org/2000/svg">
<mask id="mask0_62_14" style="mask-type:luminance" maskUnits="userSpaceOnUse" x="0" y="0" width="83" height="47">
<path d="M0 0.442383H82.1296V46.6461H0V0.442383Z" fill="white"/>
</mask>
<g mask="url(#mask0_62_14)">
<path d="M75.7133 38.9455H71.7583C71.8234 38.5245 71.8634 38.0982 71.8634 37.6617C71.8634 32.7085 67.8333 28.6778 62.8805 28.6778C57.9283 28.6778 53.8981 32.7085 53.8981 37.6617C53.8981 38.0982 53.9381 38.5245 54.0032 38.9455H28.1274C28.1925 38.5245 28.2326 38.0982 28.2326 37.6617C28.2326 32.7085 24.2024 28.6778 19.2501 28.6778C14.2974 28.6778 10.2672 32.7085 10.2672 37.6617C10.2672 38.0982 10.3072 38.5245 10.3723 38.9455H6.41735C4.29206 38.9455 2.56753 37.2209 2.56753 35.0952V31.2449H5.13408C5.7205 31.2449 6.23699 30.8436 6.37733 30.2721L7.6606 25.1386C7.75561 24.7576 7.67073 24.351 7.43009 24.0405C7.18414 23.7246 6.81328 23.5442 6.41735 23.5442H3.70565C4.18693 23.0678 4.7883 22.707 5.48516 22.5363L9.73574 21.4686C11.4251 21.0476 12.8887 19.9394 13.751 18.4304L15.5406 15.2972C19.8717 7.71669 27.9823 3.00893 36.7091 3.00893H40.2884C49.0153 3.00893 57.1263 7.71669 61.4569 15.2972L63.1265 18.2149C64.0837 19.8945 65.7277 21.0423 67.6379 21.3582L72.0588 22.0951C73.3922 22.3159 74.6104 22.8271 75.6631 23.5442H73.1467C72.4397 23.5442 71.8634 24.1205 71.8634 24.8275C71.8634 26.527 72.5299 28.1362 73.7481 29.3747C74.9711 30.5779 76.5804 31.2449 78.2798 31.2449H79.5631V35.0952C79.5631 37.2209 77.8386 38.9455 75.7133 38.9455ZM62.8805 44.0791C59.3417 44.0791 56.4641 41.2015 56.4641 37.6617C56.4641 34.1225 59.3417 31.2449 62.8805 31.2449C66.4198 31.2449 69.2969 34.1225 69.2969 37.6617C69.2969 41.2015 66.4198 44.0791 62.8805 44.0791ZM19.2501 44.0791C15.7109 44.0791 12.8337 41.2015 12.8337 37.6617C12.8337 34.1225 15.7109 31.2449 19.2501 31.2449C22.7889 31.2449 25.666 34.1225 25.666 37.6617C25.666 41.2015 22.7889 44.0791 19.2501 44.0791ZM2.58248 26.1108H4.77335L4.13147 28.6778H2.56753V26.2666C2.56753 26.2164 2.57766 26.1662 2.58248 26.1108ZM78.1443 26.1108C78.6459 26.893 79.0317 27.7553 79.267 28.6778H78.2798C77.257 28.6778 76.2896 28.2766 75.5628 27.56C75.1466 27.1389 74.8409 26.6475 74.6504 26.1108H78.1443ZM72.4798 19.5632L68.0589 18.8264C66.916 18.6359 65.9284 17.9491 65.3521 16.9412L63.6825 14.0236C58.9005 5.64638 49.933 0.442383 40.2884 0.442383H36.7091C27.065 0.442383 18.097 5.64638 13.315 14.0236L11.5254 17.1568C11.0041 18.0596 10.1268 18.726 9.11411 18.9821L4.86353 20.0445C2.65771 20.5962 0.978504 22.2407 0.316852 24.3163C0.301902 24.351 0.301903 24.3862 0.286953 24.4215C0.111413 25.0132 0.000976562 25.6295 0.000976562 26.2666V35.0952C0.000976562 38.6344 2.87858 41.512 6.41735 41.512H11.1444C12.5931 44.5406 15.6761 46.6461 19.2501 46.6461C22.8241 46.6461 25.9067 44.5406 27.3553 41.512H54.7753C56.224 44.5406 59.3065 46.6461 62.8805 46.6461C66.4545 46.6461 69.5375 44.5406 70.9862 41.512H75.7133C79.252 41.512 82.1296 38.6344 82.1296 35.0952V30.9589C82.1296 25.289 78.0691 20.4959 72.4798 19.5632Z" fill="#004870"/>
</g>
<path d="M43.6311 20.9771H41.0645C40.3575 20.9771 39.7812 21.5538 39.7812 22.2603C39.7812 22.9673 40.3575 23.5441 41.0645 23.5441H43.6311C44.3381 23.5441 44.9144 22.9673 44.9144 22.2603C44.9144 21.5538 44.3381 20.9771 43.6311 20.9771Z" fill="#004870"/>
<path d="M19.2492 20.9771H16.6827C15.9757 20.9771 15.3994 21.5538 15.3994 22.2603C15.3994 22.9673 15.9757 23.5441 16.6827 23.5441H19.2492C19.9557 23.5441 20.5325 22.9673 20.5325 22.2603C20.5325 21.5538 19.9557 20.9771 19.2492 20.9771Z" fill="#004870"/>
<path d="M62.8801 38.9456C62.1736 38.9456 61.5968 38.3688 61.5968 37.6618C61.5968 36.9553 62.1736 36.3786 62.8801 36.3786C63.5871 36.3786 64.1634 36.9553 64.1634 37.6618C64.1634 38.3688 63.5871 38.9456 62.8801 38.9456ZM62.8801 33.8115C60.7548 33.8115 59.0303 35.5365 59.0303 37.6618C59.0303 39.7876 60.7548 41.5121 62.8801 41.5121C65.0054 41.5121 66.7299 39.7876 66.7299 37.6618C66.7299 35.5365 65.0054 33.8115 62.8801 33.8115Z" fill="#004870"/>
<path d="M19.2492 38.9456C18.5423 38.9456 17.966 38.3688 17.966 37.6618C17.966 36.9553 18.5423 36.3786 19.2492 36.3786C19.9557 36.3786 20.5325 36.9553 20.5325 37.6618C20.5325 38.3688 19.9557 38.9456 19.2492 38.9456ZM19.2492 33.8115C17.1235 33.8115 15.3994 35.5365 15.3994 37.6618C15.3994 39.7876 17.1235 41.5121 19.2492 41.5121C21.3745 41.5121 23.0991 39.7876 23.0991 37.6618C23.0991 35.5365 21.3745 33.8115 19.2492 33.8115Z" fill="#004870"/>
<path d="M34.6484 17.1272H19.8611C22.3925 11.071 28.1269 7.10547 34.6484 6.86965V17.1272ZM35.9317 4.29297H35.2652C27.3548 4.29297 20.3371 9.04075 17.3896 16.3951L16.7732 17.9345C16.618 18.3304 16.6628 18.7765 16.9034 19.1276C17.1441 19.4835 17.54 19.6942 17.9663 19.6942H35.9317C36.6387 19.6942 37.215 19.1174 37.215 18.4104V5.57624C37.215 4.86926 36.6387 4.29297 35.9317 4.29297Z" fill="#004870"/>
<path d="M59.6067 16.3903C58.524 13.6979 56.8945 11.3416 54.7644 9.3817C54.2431 8.90041 53.4309 8.93514 52.9545 9.45645C52.4737 9.97825 52.5084 10.7904 53.0297 11.2663C54.8193 12.9161 56.1981 14.8861 57.1351 17.1272H42.3478V6.86965C44.8189 6.96513 47.2653 7.61183 49.4509 8.75477C50.0822 9.0856 50.8596 8.84013 51.1851 8.2132C51.5111 7.58676 51.2704 6.80937 50.644 6.47854C47.9067 5.05011 44.8242 4.29297 41.731 4.29297H41.0645C40.3575 4.29297 39.7812 4.86926 39.7812 5.57624V18.4104C39.7812 19.1174 40.3575 19.6942 41.0645 19.6942H59.0299C59.4562 19.6942 59.8521 19.4835 60.0928 19.1276C60.3334 18.7765 60.3783 18.3304 60.223 17.9345L59.6067 16.3903Z" fill="#004870"/>
</svg>
