<svg width="64" height="46" viewBox="0 0 64 46" fill="none" xmlns="http://www.w3.org/2000/svg">
<mask id="mask0_611_77288" style="mask-type:luminance" maskUnits="userSpaceOnUse" x="0" y="0" width="64" height="46">
<path d="M0.910156 0.784668H63.0805V45.1921H0.910156V0.784668Z" fill="white"/>
</mask>
<g mask="url(#mask0_611_77288)">
<path d="M55.6789 0.792969H8.31139C8.19002 0.793393 8.06907 0.796364 7.94812 0.802305C7.82717 0.808246 7.70665 0.817158 7.58612 0.829466C7.4656 0.841348 7.3455 0.856202 7.2254 0.874026C7.10572 0.89185 6.98647 0.912645 6.86764 0.93641C6.74881 0.960176 6.63084 0.986487 6.51328 1.01619C6.39615 1.04548 6.27945 1.07815 6.16359 1.11338C6.04773 1.1486 5.93273 1.18637 5.81857 1.22711C5.70483 1.26828 5.59195 1.31156 5.47991 1.35825C5.36787 1.4045 5.25753 1.45373 5.14804 1.50551C5.03855 1.55728 4.93033 1.6116 4.82381 1.66889C4.71687 1.72576 4.61162 1.7856 4.50765 1.84756C4.40368 1.90994 4.3014 1.97487 4.20082 2.04193C4.10024 2.1094 4.00136 2.179 3.90418 2.25115C3.80657 2.32329 3.71151 2.39756 3.61772 2.47437C3.52393 2.55119 3.43226 2.63055 3.34272 2.7116C3.25317 2.79308 3.16533 2.87626 3.0796 2.96199C2.9943 3.04771 2.9107 3.13514 2.82922 3.22511C2.74816 3.31465 2.6688 3.40632 2.59199 3.49968C2.51517 3.59347 2.4409 3.68896 2.36876 3.78614C2.29661 3.88332 2.22659 3.9822 2.15954 4.08278C2.09206 4.18336 2.02713 4.28564 1.96517 4.38961C1.90279 4.49316 1.84295 4.59841 1.78608 4.70535C1.72879 4.81187 1.67447 4.92009 1.62227 5.02958C1.5705 5.13907 1.52169 5.24941 1.47501 5.36145C1.42875 5.47306 1.38504 5.58595 1.3443 5.70011C1.30356 5.81384 1.26536 5.92885 1.23014 6.0447C1.19492 6.16056 1.16266 6.27727 1.13296 6.3944C1.10367 6.51195 1.07694 6.62993 1.05317 6.74876C1.02941 6.86716 1.00861 6.98641 0.990789 7.10651C0.972965 7.22619 0.958112 7.34629 0.946229 7.46639C0.934346 7.58691 0.925434 7.70786 0.919068 7.82881C0.913127 7.94933 0.910156 8.07071 0.910156 8.19166V37.7856C0.910156 37.9065 0.913127 38.0275 0.919068 38.1484C0.925434 38.2694 0.934346 38.3899 0.946229 38.5104C0.958112 38.6309 0.972965 38.751 0.990789 38.8707C1.00861 38.9904 1.02941 39.1096 1.05317 39.2285C1.07694 39.3469 1.10367 39.4653 1.13296 39.5824C1.16266 39.7 1.19492 39.8167 1.23014 39.9325C1.26536 40.0484 1.30356 40.163 1.3443 40.2771C1.38504 40.3908 1.42875 40.5037 1.47501 40.6158C1.52169 40.7274 1.5705 40.8381 1.62227 40.9476C1.67447 41.0571 1.72879 41.1649 1.78608 41.2719C1.84295 41.3784 1.90279 41.4836 1.96517 41.5876C2.02713 41.6912 2.09206 41.7934 2.15954 41.894C2.22659 41.995 2.29661 42.0939 2.36876 42.1911C2.4409 42.2883 2.51517 42.3837 2.59199 42.4771C2.6688 42.5709 2.74816 42.6626 2.82922 42.7521C2.9107 42.8417 2.9943 42.9295 3.0796 43.0148C3.16533 43.1005 3.25317 43.1841 3.34272 43.2652C3.43226 43.3467 3.52393 43.4256 3.61772 43.5024C3.71151 43.5792 3.80657 43.6539 3.90418 43.7261C4.00136 43.7982 4.10024 43.8678 4.20082 43.9349C4.3014 44.0023 4.40368 44.0668 4.50765 44.1292C4.61162 44.1916 4.71687 44.251 4.82381 44.3083C4.93033 44.3656 5.03855 44.4199 5.14804 44.4717C5.25753 44.5235 5.36787 44.5727 5.47991 44.619C5.59195 44.6652 5.70483 44.7089 5.81857 44.7497C5.93273 44.7904 6.04773 44.8286 6.16359 44.8638C6.27945 44.8991 6.39615 44.9313 6.51328 44.961C6.63084 44.9903 6.74881 45.017 6.86764 45.0408C6.98647 45.0641 7.10572 45.0849 7.2254 45.1028C7.3455 45.121 7.4656 45.1359 7.58612 45.1478C7.70665 45.1596 7.82717 45.1685 7.94812 45.1749C8.06907 45.1809 8.19002 45.1838 8.31139 45.1838H55.6789C55.8002 45.1838 55.9212 45.1809 56.0421 45.1749C56.1631 45.1685 56.2836 45.1596 56.4041 45.1478C56.5247 45.1359 56.6448 45.121 56.7649 45.1028C56.8845 45.0849 57.0038 45.0641 57.1226 45.0408C57.2415 45.017 57.3594 44.9903 57.477 44.961C57.5941 44.9313 57.7108 44.8991 57.8267 44.8638C57.9425 44.8286 58.0575 44.7904 58.1717 44.7497C58.2854 44.7089 58.3983 44.6652 58.5104 44.619C58.6224 44.5727 58.7327 44.5235 58.8422 44.4717C58.9517 44.4199 59.0599 44.3656 59.1665 44.3083C59.2734 44.251 59.3786 44.1916 59.4826 44.1292C59.5866 44.0668 59.6889 44.0023 59.7894 43.9349C59.89 43.8678 59.9889 43.7982 60.0861 43.7261C60.1837 43.6539 60.2788 43.5792 60.3725 43.5024C60.4663 43.4256 60.558 43.3467 60.6475 43.2652C60.7371 43.1841 60.8249 43.1005 60.9107 43.0148C60.9964 42.9295 61.0796 42.8417 61.1611 42.7521C61.2425 42.6626 61.3215 42.5709 61.3983 42.4771C61.4751 42.3837 61.5494 42.2883 61.6215 42.1911C61.6941 42.0939 61.7637 41.995 61.8307 41.8944C61.8982 41.7934 61.9631 41.6916 62.0251 41.5876C62.0875 41.4836 62.1473 41.3784 62.2042 41.2719C62.2615 41.1649 62.3158 41.0571 62.368 40.9476C62.4198 40.8381 62.4686 40.7274 62.5153 40.6158C62.5615 40.5037 62.6052 40.3908 62.646 40.2771C62.6867 40.163 62.7249 40.0484 62.7601 39.9325C62.7953 39.8167 62.8276 39.7 62.8573 39.5824C62.8866 39.4653 62.9133 39.3469 62.9371 39.2285C62.9609 39.1096 62.9817 38.9904 62.9995 38.8707C63.0173 38.751 63.0322 38.6309 63.044 38.5104C63.0559 38.3899 63.0648 38.2694 63.0712 38.1484C63.0771 38.0275 63.0801 37.9065 63.0801 37.7856V8.19166C63.0801 8.07071 63.0771 7.94933 63.0712 7.82881C63.0648 7.70786 63.0559 7.58691 63.044 7.46639C63.0322 7.34629 63.0173 7.22619 62.9995 7.10651C62.9817 6.98641 62.9609 6.86716 62.9371 6.74876C62.9133 6.62993 62.8866 6.51195 62.8573 6.3944C62.8276 6.27727 62.7953 6.16056 62.7601 6.0447C62.7249 5.92885 62.6867 5.81384 62.646 5.70011C62.6052 5.58595 62.5615 5.47306 62.5153 5.36145C62.4686 5.24941 62.4198 5.13907 62.368 5.02958C62.3158 4.92009 62.2615 4.81187 62.2042 4.70535C62.1473 4.59841 62.0875 4.49316 62.0251 4.38961C61.9631 4.28564 61.8982 4.18336 61.8307 4.08278C61.7637 3.9822 61.6937 3.88332 61.6215 3.78614C61.5494 3.68896 61.4751 3.59347 61.3983 3.49968C61.3215 3.40632 61.2425 3.31465 61.1611 3.22511C61.0796 3.13514 60.9964 3.04771 60.9107 2.96199C60.8249 2.87626 60.7371 2.79308 60.6475 2.7116C60.558 2.63055 60.4663 2.55119 60.3725 2.47437C60.2788 2.39756 60.1837 2.32329 60.0861 2.25115C59.9889 2.179 59.89 2.1094 59.7894 2.04193C59.6889 1.97487 59.5866 1.90994 59.4826 1.84756C59.3786 1.7856 59.2734 1.72576 59.1665 1.66889C59.0599 1.6116 58.9517 1.55728 58.8422 1.50551C58.7327 1.45373 58.6224 1.4045 58.5104 1.35825C58.3983 1.31156 58.2854 1.26828 58.1717 1.22711C58.0575 1.18637 57.9425 1.1486 57.8267 1.11338C57.7108 1.07815 57.5941 1.04548 57.477 1.01619C57.3594 0.986487 57.2415 0.960176 57.1226 0.93641C57.0038 0.912645 56.8845 0.89185 56.7649 0.874026C56.6448 0.856202 56.5247 0.841348 56.4041 0.829466C56.2836 0.817158 56.1631 0.808246 56.0421 0.802305C55.9212 0.796364 55.8002 0.793393 55.6789 0.792969ZM60.1196 37.7856C60.1196 37.9307 60.1124 38.0758 60.098 38.2206C60.0835 38.3648 60.0623 38.5087 60.0339 38.6513C60.005 38.7935 59.9698 38.9344 59.9274 39.0736C59.8854 39.2128 59.8361 39.3494 59.7805 39.4835C59.7249 39.6176 59.6626 39.7488 59.5942 39.8769C59.5255 40.0051 59.4508 40.1299 59.3697 40.2504C59.2891 40.3713 59.2025 40.488 59.1104 40.6001C59.0179 40.7125 58.9207 40.8203 58.8176 40.923C58.7149 41.0257 58.6075 41.1233 58.4951 41.2154C58.3826 41.3075 58.2659 41.3941 58.145 41.4751C58.024 41.5558 57.8997 41.6305 57.7715 41.6988C57.6433 41.7675 57.5122 41.8295 57.3777 41.8855C57.2436 41.9411 57.1069 41.9899 56.9677 42.0324C56.8285 42.0748 56.6876 42.11 56.545 42.1385C56.4024 42.1669 56.259 42.1885 56.1143 42.2025C55.9696 42.217 55.8244 42.2242 55.6789 42.2246H8.31139C8.16583 42.2242 8.02069 42.217 7.87598 42.2025C7.73126 42.1885 7.58782 42.1669 7.44523 42.1385C7.30263 42.11 7.16174 42.0748 7.02254 42.0324C6.88334 41.9899 6.74669 41.9411 6.61259 41.8855C6.47806 41.8295 6.34692 41.7675 6.21876 41.6988C6.0906 41.6305 5.96625 41.5558 5.8453 41.4751C5.72435 41.3941 5.60765 41.3075 5.49519 41.2154C5.38273 41.1233 5.27536 41.0257 5.17266 40.923C5.06953 40.8203 4.97235 40.7125 4.87983 40.6005C4.78774 40.488 4.70117 40.3713 4.62053 40.2504C4.53948 40.1299 4.46479 40.0051 4.39604 39.8769C4.32771 39.7488 4.26533 39.6176 4.20973 39.4835C4.15414 39.3494 4.10491 39.2128 4.0629 39.0736C4.02046 38.9344 3.98523 38.7935 3.95638 38.6513C3.92794 38.5087 3.90672 38.3648 3.89229 38.2206C3.87787 38.0758 3.87065 37.9307 3.87065 37.7856V8.19166C3.87065 8.04609 3.87787 7.90138 3.89229 7.75666C3.90672 7.61195 3.92794 7.46851 3.95638 7.32592C3.98523 7.18332 4.02046 7.04243 4.0629 6.90366C4.10491 6.76446 4.15414 6.62781 4.20973 6.4937C4.26533 6.35917 4.32771 6.22804 4.39604 6.09987C4.46479 5.97171 4.53948 5.84737 4.62053 5.72642C4.70117 5.60547 4.78774 5.48919 4.87983 5.37673C4.97235 5.26427 5.06953 5.1569 5.17266 5.0542C5.27536 4.9515 5.38273 4.85389 5.49519 4.76137C5.60765 4.66928 5.72435 4.58271 5.8453 4.50207C5.96625 4.42144 6.0906 4.34675 6.21876 4.278C6.34692 4.20967 6.47806 4.14729 6.61259 4.0917C6.74669 4.0361 6.88334 3.98687 7.02254 3.94486C7.16174 3.90242 7.30263 3.8672 7.44523 3.83876C7.58782 3.80991 7.73126 3.78869 7.87598 3.77426C8.02069 3.75983 8.16583 3.75261 8.31139 3.75261H55.6789C55.8244 3.75261 55.9696 3.75983 56.1143 3.77426C56.259 3.78869 56.4024 3.80991 56.545 3.83876C56.6876 3.8672 56.8285 3.90242 56.9677 3.94486C57.1069 3.98687 57.2436 4.0361 57.3777 4.0917C57.5122 4.14729 57.6433 4.20967 57.7715 4.278C57.8997 4.34675 58.024 4.42144 58.145 4.50207C58.2659 4.58271 58.3826 4.66928 58.4951 4.76137C58.6075 4.85389 58.7149 4.9515 58.8176 5.0542C58.9207 5.1569 59.0179 5.26427 59.1104 5.37673C59.2025 5.48919 59.2891 5.60547 59.3697 5.72642C59.4508 5.84737 59.5255 5.97171 59.5942 6.09987C59.6626 6.22804 59.7249 6.35917 59.7805 6.4937C59.8361 6.62781 59.8854 6.76446 59.9274 6.90366C59.9698 7.04243 60.005 7.18332 60.0339 7.32592C60.0623 7.46851 60.0835 7.61195 60.098 7.75666C60.1124 7.90138 60.1196 8.04609 60.1196 8.19166V37.7856ZM20.1534 24.468C20.2743 24.468 20.3953 24.465 20.5162 24.4591C20.6372 24.4532 20.7581 24.4442 20.8786 24.4328C20.9992 24.4209 21.1193 24.406 21.2389 24.3882C21.359 24.3704 21.4783 24.3496 21.5971 24.3258C21.7159 24.3025 21.8339 24.2758 21.9515 24.2465C22.069 24.2172 22.1857 24.1849 22.3016 24.1497C22.4174 24.1145 22.5325 24.0763 22.6466 24.0356C22.7608 23.9948 22.8737 23.9515 22.9857 23.9049C23.0973 23.8586 23.2081 23.8098 23.3176 23.758C23.4271 23.7062 23.5353 23.6515 23.6422 23.5946C23.7487 23.5373 23.8544 23.4779 23.958 23.4155C24.0619 23.3532 24.1642 23.2886 24.2652 23.2212C24.3658 23.1541 24.4647 23.0845 24.5623 23.0124C24.6595 22.9402 24.755 22.8655 24.8483 22.7887C24.9421 22.7119 25.0338 22.633 25.1233 22.5515C25.2133 22.4704 25.3011 22.3868 25.3864 22.3011C25.4722 22.2158 25.5558 22.128 25.6372 22.0384C25.7183 21.9484 25.7977 21.8568 25.8745 21.7634C25.9513 21.6696 26.0256 21.5741 26.0977 21.477C26.1698 21.3798 26.2399 21.2809 26.3069 21.1799C26.3744 21.0793 26.4393 20.977 26.5013 20.8735C26.5637 20.7695 26.6235 20.6643 26.6804 20.5573C26.7377 20.4504 26.792 20.3426 26.8438 20.2331C26.8955 20.1236 26.9448 20.0128 26.991 19.9008C27.0373 19.7892 27.081 19.6763 27.1217 19.5621C27.1625 19.448 27.2007 19.3334 27.2359 19.2175C27.2707 19.1017 27.3029 18.985 27.3327 18.8674C27.3619 18.7499 27.3887 18.6319 27.412 18.5131C27.4358 18.3942 27.4566 18.275 27.4744 18.1553C27.4922 18.0356 27.5071 17.9155 27.519 17.795C27.5308 17.6745 27.5393 17.5535 27.5457 17.4326C27.5516 17.3116 27.5546 17.1907 27.5546 17.0697C27.5546 16.9488 27.5516 16.8278 27.5457 16.7069C27.5393 16.5859 27.5308 16.465 27.519 16.3445C27.5071 16.2239 27.4922 16.1038 27.4744 15.9842C27.4566 15.8645 27.4358 15.7452 27.412 15.6264C27.3887 15.5076 27.3619 15.3896 27.3327 15.2721C27.3029 15.1545 27.2707 15.0378 27.2359 14.9219C27.2007 14.8061 27.1625 14.6911 27.1217 14.5773C27.081 14.4632 27.0373 14.3503 26.991 14.2383C26.9448 14.1266 26.8955 14.0159 26.8438 13.9064C26.792 13.7969 26.7377 13.6887 26.6804 13.5822C26.6235 13.4752 26.5637 13.37 26.5013 13.266C26.4393 13.1625 26.3744 13.0602 26.3069 12.9592C26.2399 12.8586 26.1698 12.7597 26.0977 12.6625C26.0256 12.5653 25.9513 12.4699 25.8745 12.3761C25.7977 12.2827 25.7183 12.191 25.6372 12.1011C25.5558 12.0115 25.4722 11.9237 25.3864 11.8384C25.3011 11.7527 25.2133 11.669 25.1233 11.588C25.0338 11.5065 24.9421 11.4276 24.8483 11.3508C24.755 11.2739 24.6595 11.1993 24.5619 11.1271C24.4647 11.055 24.3658 10.9854 24.2652 10.9183C24.1642 10.8508 24.0619 10.7859 23.958 10.7239C23.8544 10.6616 23.7487 10.6017 23.6422 10.5449C23.5353 10.4876 23.4271 10.4332 23.3176 10.3815C23.2081 10.3297 23.0973 10.2809 22.9857 10.2346C22.8737 10.188 22.7608 10.1447 22.6466 10.1039C22.5325 10.0628 22.4174 10.025 22.3016 9.98977C22.1857 9.95454 22.069 9.92229 21.9515 9.89301C21.8339 9.86372 21.7159 9.83699 21.5971 9.81322C21.4783 9.78988 21.359 9.76909 21.2389 9.75126C21.1193 9.73344 20.9992 9.71859 20.8786 9.7067C20.7581 9.69482 20.6372 9.68591 20.5162 9.67997C20.3953 9.67403 20.2743 9.67105 20.1534 9.67105C20.032 9.67105 19.911 9.67403 19.7901 9.67997C19.6691 9.68591 19.5482 9.69482 19.4277 9.7067C19.3071 9.71859 19.187 9.73344 19.0674 9.75126C18.9473 9.76909 18.828 9.78988 18.7092 9.81322C18.5904 9.83699 18.4724 9.86372 18.3548 9.89301C18.2373 9.92229 18.1206 9.95454 18.0047 9.98977C17.8889 10.025 17.7739 10.0628 17.6597 10.1039C17.5455 10.1447 17.4327 10.188 17.321 10.2342C17.209 10.2809 17.0982 10.3297 16.9887 10.3815C16.8793 10.4332 16.771 10.4876 16.6641 10.5449C16.5576 10.6017 16.4519 10.6616 16.3484 10.7239C16.2444 10.7859 16.1421 10.8508 16.0411 10.9183C15.9405 10.9854 15.8416 11.055 15.7445 11.1271C15.6468 11.1993 15.5514 11.2739 15.458 11.3508C15.3642 11.4276 15.2725 11.5065 15.183 11.588C15.093 11.669 15.0052 11.7527 14.9199 11.8384C14.8342 11.9237 14.7506 12.0115 14.6691 12.1011C14.588 12.191 14.5087 12.2827 14.4318 12.3761C14.355 12.4699 14.2808 12.5653 14.2086 12.6625C14.1365 12.7597 14.0664 12.8586 13.9994 12.9592C13.9319 13.0602 13.867 13.1625 13.805 13.266C13.7426 13.37 13.6828 13.4752 13.6259 13.5822C13.5686 13.6887 13.5143 13.7969 13.4626 13.9064C13.4108 14.0159 13.3615 14.1266 13.3153 14.2383C13.269 14.3503 13.2253 14.4632 13.1846 14.5773C13.1438 14.6911 13.1056 14.8061 13.0704 14.9219C13.0356 15.0378 13.0034 15.1545 12.9737 15.2721C12.9444 15.3896 12.9176 15.5076 12.8943 15.6264C12.8705 15.7452 12.8497 15.8645 12.8319 15.9842C12.8141 16.1038 12.7992 16.2239 12.7874 16.3445C12.7759 16.465 12.767 16.5859 12.761 16.7069C12.7551 16.8278 12.7521 16.9488 12.7521 17.0697C12.7521 17.1907 12.7551 17.3116 12.761 17.4326C12.7674 17.5535 12.7763 17.6741 12.7882 17.7946C12.8001 17.9151 12.8149 18.0352 12.8328 18.1549C12.8506 18.2746 12.8714 18.3938 12.8952 18.5126C12.9189 18.6315 12.9457 18.7495 12.9749 18.867C13.0046 18.9841 13.0369 19.1008 13.0721 19.2167C13.1073 19.3326 13.1455 19.4471 13.1863 19.5613C13.227 19.6755 13.2707 19.7883 13.317 19.9C13.3637 20.0116 13.4125 20.1223 13.4642 20.2318C13.5164 20.3413 13.5708 20.4491 13.6281 20.556C13.6849 20.6626 13.7448 20.7678 13.8071 20.8718C13.8691 20.9758 13.934 21.078 14.0015 21.1786C14.0686 21.2792 14.1386 21.3781 14.2107 21.4753C14.2829 21.5724 14.3571 21.6679 14.434 21.7613C14.5108 21.8551 14.5901 21.9467 14.6712 22.0363C14.7527 22.1258 14.8363 22.2137 14.9216 22.2994C15.0073 22.3847 15.0952 22.4683 15.1847 22.5498C15.2742 22.6309 15.3659 22.7098 15.4597 22.7866C15.5535 22.8634 15.6485 22.9381 15.7462 23.0103C15.8433 23.0824 15.9422 23.152 16.0428 23.219C16.1434 23.2865 16.2457 23.3515 16.3496 23.4134C16.4536 23.4758 16.5588 23.5356 16.6658 23.5925C16.7723 23.6498 16.8805 23.7041 16.99 23.7559C17.0995 23.8077 17.2099 23.8569 17.3219 23.9032C17.4339 23.9494 17.5468 23.9931 17.6605 24.0339C17.7747 24.075 17.8897 24.1128 18.0056 24.148C18.1214 24.1832 18.2381 24.2155 18.3553 24.2452C18.4728 24.2745 18.5908 24.3012 18.7096 24.325C18.8284 24.3488 18.9477 24.3696 19.0674 24.3874C19.1875 24.4052 19.3076 24.4201 19.4281 24.4319C19.5486 24.4438 19.6691 24.4527 19.7901 24.4591C19.911 24.465 20.032 24.468 20.1534 24.468ZM20.1534 12.6307C20.2985 12.6307 20.4436 12.6379 20.5884 12.6519C20.7331 12.6663 20.8769 12.6876 21.0195 12.716C21.1621 12.7444 21.303 12.7797 21.4422 12.8217C21.5814 12.8641 21.7181 12.9129 21.8526 12.9685C21.9871 13.0241 22.1183 13.0861 22.2464 13.1548C22.3746 13.2231 22.4994 13.2978 22.6203 13.3789C22.7413 13.4595 22.858 13.5461 22.9704 13.6382C23.0829 13.7307 23.1903 13.8279 23.2934 13.931C23.3961 14.0337 23.4937 14.1411 23.5858 14.2535C23.6783 14.366 23.7649 14.4827 23.8455 14.6037C23.9261 14.7242 24.0008 14.8489 24.0696 14.9771C24.1379 15.1053 24.2003 15.2368 24.2559 15.3709C24.3115 15.5055 24.3603 15.6421 24.4027 15.7813C24.4447 15.9201 24.4804 16.061 24.5084 16.2036C24.5368 16.3462 24.5585 16.49 24.5725 16.6348C24.5869 16.7795 24.5941 16.9242 24.5941 17.0697C24.5941 17.2153 24.5869 17.36 24.5725 17.5047C24.5585 17.6495 24.5368 17.7933 24.5084 17.9359C24.4804 18.0785 24.4447 18.2194 24.4027 18.3582C24.3603 18.4974 24.3115 18.634 24.2559 18.7685C24.2003 18.9027 24.1379 19.0342 24.0696 19.1624C24.0008 19.2905 23.9261 19.4149 23.8455 19.5358C23.7649 19.6568 23.6783 19.7735 23.5858 19.8859C23.4937 19.9984 23.3961 20.1058 23.2934 20.2085C23.1903 20.3116 23.0829 20.4088 22.9704 20.5013C22.858 20.5934 22.7413 20.68 22.6203 20.7606C22.4994 20.8417 22.3746 20.9159 22.2464 20.9847C22.1183 21.053 21.9871 21.1154 21.8526 21.171C21.7181 21.2266 21.5814 21.2754 21.4422 21.3178C21.303 21.3598 21.1621 21.3951 21.0195 21.4235C20.8769 21.4519 20.7331 21.4731 20.5884 21.4876C20.4436 21.5016 20.2985 21.5088 20.1534 21.5088C20.0078 21.5088 19.8627 21.5016 19.718 21.4876C19.5732 21.4731 19.4294 21.4519 19.2868 21.4235C19.1442 21.3951 19.0033 21.3598 18.8641 21.3178C18.7249 21.2754 18.5882 21.2266 18.4537 21.171C18.3192 21.1154 18.1881 21.053 18.0599 20.9847C17.9317 20.9159 17.807 20.8417 17.686 20.7606C17.5651 20.68 17.4484 20.5934 17.3359 20.5013C17.2234 20.4088 17.1161 20.3116 17.0129 20.2085C16.9102 20.1058 16.8126 19.9984 16.7205 19.8859C16.628 19.7735 16.5414 19.6568 16.4608 19.5358C16.3802 19.4149 16.3055 19.2905 16.2367 19.1624C16.1684 19.0342 16.106 18.9027 16.0504 18.7685C15.9948 18.634 15.946 18.4974 15.9036 18.3582C15.8616 18.2194 15.8259 18.0785 15.7979 17.9359C15.7695 17.7933 15.7479 17.6495 15.7338 17.5047C15.7194 17.36 15.7126 17.2153 15.7126 17.0697C15.7126 16.9242 15.7198 16.7795 15.7343 16.6348C15.7487 16.49 15.7699 16.3466 15.7984 16.204C15.8272 16.0614 15.8624 15.9205 15.9049 15.7817C15.9469 15.6425 15.9961 15.5059 16.0517 15.3718C16.1073 15.2373 16.1697 15.1061 16.238 14.978C16.3068 14.8498 16.3815 14.7255 16.4625 14.6045C16.5431 14.484 16.6297 14.3673 16.7218 14.2548C16.8143 14.1428 16.9115 14.035 17.0146 13.9323C17.1173 13.8296 17.2247 13.732 17.3372 13.6399C17.4496 13.5474 17.5663 13.4612 17.6873 13.3802C17.8082 13.2995 17.9326 13.2248 18.0607 13.1561C18.1889 13.0878 18.32 13.0254 18.4546 12.9698C18.5887 12.9142 18.7253 12.865 18.8645 12.8229C19.0037 12.7805 19.1446 12.7453 19.2872 12.7169C19.4298 12.6884 19.5732 12.6668 19.718 12.6523C19.8627 12.6379 20.0078 12.6307 20.1534 12.6307ZM30.5151 34.8259C30.5147 34.9231 30.5053 35.0194 30.4862 35.1149C30.4676 35.21 30.4396 35.3025 30.4022 35.3925C30.3649 35.482 30.3195 35.5673 30.2656 35.6479C30.2112 35.729 30.1501 35.8037 30.0814 35.8724C30.0126 35.9412 29.9379 36.0023 29.8569 36.0562C29.7762 36.1105 29.6909 36.1559 29.601 36.1933C29.5114 36.2302 29.4189 36.2582 29.3234 36.2773C29.2279 36.2964 29.132 36.3057 29.0349 36.3057C28.9372 36.3057 28.8413 36.2964 28.7458 36.2773C28.6504 36.2582 28.5578 36.2302 28.4683 36.1933C28.3783 36.1559 28.293 36.1105 28.2124 36.0562C28.1313 36.0023 28.0566 35.9412 27.9879 35.8724C27.9191 35.8037 27.858 35.729 27.8037 35.6479C27.7498 35.5673 27.7044 35.482 27.6671 35.3925C27.6297 35.3025 27.6017 35.21 27.583 35.1149C27.5639 35.0194 27.5542 34.9231 27.5546 34.8259C27.5542 34.6808 27.547 34.5356 27.5325 34.3909C27.5181 34.2466 27.4969 34.1028 27.4685 33.9602C27.4396 33.818 27.4044 33.6771 27.3619 33.5379C27.3199 33.3991 27.2707 33.2625 27.2151 33.128C27.1595 32.9939 27.0971 32.8627 27.0288 32.7346C26.96 32.6064 26.8854 32.4816 26.8043 32.3611C26.7237 32.2402 26.6371 32.1234 26.545 32.0114C26.4525 31.8989 26.3553 31.7912 26.2522 31.6885C26.1495 31.5858 26.0421 31.4881 25.9296 31.3961C25.8172 31.304 25.7005 31.2174 25.5795 31.1368C25.4586 31.0557 25.3342 30.981 25.2061 30.9127C25.0779 30.8439 24.9468 30.782 24.8122 30.7264C24.6781 30.6704 24.5415 30.6216 24.4023 30.5791C24.2631 30.5371 24.1222 30.5015 23.9796 30.473C23.837 30.4446 23.6936 30.4234 23.5489 30.4089C23.4041 30.3945 23.259 30.3873 23.1139 30.3869H17.1929C17.0473 30.3873 16.9022 30.3945 16.7575 30.4089C16.6127 30.4234 16.4693 30.4446 16.3267 30.473C16.1841 30.5015 16.0432 30.5371 15.904 30.5791C15.7648 30.6216 15.6282 30.6704 15.4941 30.7264C15.3595 30.782 15.2284 30.8439 15.1002 30.9127C14.9721 30.981 14.8477 31.0557 14.7268 31.1368C14.6058 31.2174 14.4891 31.304 14.3767 31.3961C14.2642 31.4881 14.1568 31.5858 14.0541 31.6885C13.951 31.7912 13.8538 31.8989 13.7613 32.0114C13.6692 32.1234 13.5827 32.2402 13.502 32.3611C13.421 32.4816 13.3463 32.6064 13.2775 32.7346C13.2092 32.8627 13.1468 32.9939 13.0912 33.128C13.0356 33.2625 12.9864 33.3991 12.9444 33.5379C12.9019 33.6771 12.8667 33.818 12.8379 33.9602C12.8094 34.1028 12.7882 34.2466 12.7738 34.3909C12.7593 34.5356 12.7521 34.6808 12.7521 34.8259C12.7521 34.9231 12.7424 35.0194 12.7233 35.1149C12.7046 35.21 12.6766 35.3025 12.6392 35.3925C12.6019 35.482 12.5565 35.5673 12.5026 35.6479C12.4483 35.729 12.3872 35.8037 12.3184 35.8724C12.2497 35.9412 12.175 36.0023 12.0939 36.0562C12.0133 36.1105 11.928 36.1559 11.838 36.1933C11.7485 36.2302 11.656 36.2582 11.5605 36.2773C11.465 36.2964 11.3691 36.3057 11.2719 36.3057C11.1743 36.3057 11.0784 36.2964 10.9829 36.2773C10.8874 36.2582 10.7949 36.2302 10.7053 36.1933C10.6154 36.1559 10.5301 36.1105 10.4494 36.0562C10.3684 36.0023 10.2937 35.9412 10.2249 35.8724C10.1562 35.8037 10.0951 35.729 10.0408 35.6479C9.98685 35.5673 9.94145 35.482 9.9041 35.3925C9.86675 35.3025 9.83875 35.21 9.82007 35.1149C9.80098 35.0194 9.79164 34.9231 9.79164 34.8259C9.79164 34.705 9.79461 34.584 9.80055 34.4631C9.80692 34.3421 9.81583 34.2216 9.82771 34.1011C9.83959 33.9805 9.85445 33.8604 9.87227 33.7408C9.8901 33.6211 9.91089 33.5018 9.93466 33.383C9.95842 33.2646 9.98516 33.1462 10.0144 33.0291C10.0441 32.9115 10.0764 32.7948 10.1116 32.679C10.1468 32.5635 10.185 32.4485 10.2258 32.3344C10.2665 32.2206 10.3102 32.1077 10.3565 31.9957C10.4032 31.8841 10.452 31.7733 10.5038 31.6638C10.556 31.5548 10.6103 31.4466 10.6676 31.3396C10.7244 31.2331 10.7843 31.1278 10.8467 31.0239C10.9086 30.9203 10.9735 30.818 11.041 30.7175C11.1081 30.6169 11.1781 30.5176 11.2502 30.4204C11.3224 30.3232 11.3967 30.2277 11.4735 30.1344C11.5503 30.041 11.6296 29.9493 11.7107 29.8594C11.7922 29.7698 11.8758 29.682 11.9611 29.5967C12.0468 29.5109 12.1347 29.4273 12.2242 29.3463C12.3137 29.2648 12.4054 29.1859 12.4992 29.1091C12.593 29.0322 12.6881 28.958 12.7857 28.8858C12.8828 28.8137 12.9817 28.7437 13.0823 28.6766C13.1829 28.6091 13.2852 28.5446 13.3891 28.4822C13.4931 28.4199 13.5984 28.3604 13.7053 28.3032C13.8118 28.2463 13.92 28.1915 14.0295 28.1398C14.139 28.088 14.2494 28.0392 14.3614 27.9925C14.4734 27.9462 14.5863 27.9025 14.7001 27.8618C14.8142 27.8211 14.9292 27.7829 15.0451 27.7476C15.1609 27.7124 15.2776 27.6802 15.3948 27.6509C15.5123 27.6212 15.6303 27.5944 15.7491 27.5711C15.868 27.5473 15.9872 27.5265 16.1069 27.5087C16.227 27.4909 16.3471 27.4756 16.4676 27.4637C16.5881 27.4518 16.7087 27.4429 16.8296 27.437C16.9506 27.4306 17.0715 27.4277 17.1929 27.4277H23.1139C23.2348 27.4277 23.3558 27.4306 23.4767 27.437C23.5977 27.4429 23.7182 27.4518 23.8387 27.4637C23.9592 27.4756 24.0793 27.4909 24.1994 27.5087C24.3191 27.5265 24.4384 27.5473 24.5572 27.5711C24.676 27.5944 24.794 27.6212 24.9115 27.6509C25.0287 27.6802 25.1454 27.7124 25.2612 27.7476C25.3771 27.7829 25.4921 27.8211 25.6063 27.8618C25.72 27.9025 25.8329 27.9462 25.9449 27.9925C26.057 28.0392 26.1673 28.088 26.2768 28.1398C26.3863 28.1915 26.4945 28.2463 26.601 28.3032C26.708 28.3604 26.8132 28.4199 26.9172 28.4822C27.0212 28.5446 27.1234 28.6091 27.224 28.6766C27.3246 28.7437 27.4235 28.8137 27.5207 28.8858C27.6183 28.958 27.7133 29.0322 27.8071 29.1091C27.9009 29.1859 27.9926 29.2648 28.0821 29.3463C28.1717 29.4273 28.2595 29.5109 28.3452 29.5967C28.431 29.682 28.5141 29.7698 28.5956 29.8594C28.6767 29.9493 28.756 30.041 28.8328 30.1344C28.9097 30.2277 28.9839 30.3232 29.0561 30.4204C29.1286 30.5176 29.1982 30.6169 29.2653 30.7175C29.3328 30.818 29.3977 30.9203 29.4597 31.0239C29.522 31.1278 29.5819 31.2331 29.6387 31.3396C29.696 31.4466 29.7504 31.5548 29.8026 31.6638C29.8543 31.7733 29.9031 31.8841 29.9498 31.9957C29.9961 32.1077 30.0398 32.2206 30.0805 32.3344C30.1213 32.4485 30.1595 32.5635 30.1947 32.679C30.2299 32.7948 30.2622 32.9115 30.2919 33.0291C30.3212 33.1462 30.3479 33.2646 30.3717 33.383C30.3954 33.5018 30.4162 33.6211 30.434 33.7408C30.4519 33.8604 30.4667 33.9805 30.4786 34.1011C30.4905 34.2216 30.4994 34.3421 30.5058 34.4631C30.5117 34.584 30.5147 34.705 30.5151 34.8259ZM54.1986 18.5496C54.1991 18.6467 54.1893 18.7427 54.1706 18.8381C54.1515 18.9336 54.1235 19.0261 54.0866 19.1157C54.0492 19.2057 54.0038 19.291 53.9495 19.3716C53.8956 19.4527 53.8341 19.5273 53.7653 19.5961C53.697 19.6648 53.6219 19.726 53.5413 19.7799C53.4602 19.8342 53.3749 19.8796 53.2854 19.9169C53.1954 19.9538 53.1029 19.9819 53.0074 20.001C52.9119 20.0196 52.816 20.0294 52.7188 20.029H40.8768C40.7792 20.029 40.6833 20.0196 40.5878 20.0005C40.4923 19.9819 40.3998 19.9538 40.3103 19.9165C40.2203 19.8792 40.135 19.8337 40.0544 19.7799C39.9733 19.726 39.8986 19.6644 39.8299 19.5957C39.7611 19.5269 39.7 19.4522 39.6457 19.3716C39.5918 19.2905 39.5464 19.2052 39.509 19.1157C39.4717 19.0257 39.4437 18.9332 39.425 18.8381C39.4059 18.7427 39.3962 18.6467 39.3966 18.5496C39.3962 18.4524 39.4059 18.356 39.425 18.2606C39.4437 18.1655 39.4717 18.073 39.509 17.983C39.5464 17.8935 39.5918 17.8082 39.6457 17.7275C39.7 17.6465 39.7611 17.5718 39.8299 17.503C39.8986 17.4343 39.9733 17.3732 40.0544 17.3193C40.135 17.265 40.2203 17.2196 40.3103 17.1822C40.3998 17.1453 40.4923 17.1173 40.5878 17.0982C40.6833 17.0791 40.7792 17.0697 40.8768 17.0697H52.7188C52.816 17.0697 52.9119 17.0791 53.0074 17.0982C53.1029 17.1168 53.1954 17.1449 53.2854 17.1822C53.3749 17.2191 53.4602 17.265 53.5413 17.3189C53.6219 17.3728 53.697 17.4343 53.7653 17.503C53.8341 17.5718 53.8956 17.6465 53.9495 17.7271C54.0038 17.8077 54.0492 17.893 54.0866 17.983C54.1235 18.073 54.1515 18.1655 54.1706 18.2606C54.1893 18.356 54.1991 18.4524 54.1986 18.5496ZM48.2781 27.4277C48.2781 27.5248 48.2683 27.6212 48.2496 27.7162C48.2305 27.8117 48.2025 27.9042 48.1656 27.9938C48.1283 28.0837 48.0828 28.169 48.0285 28.2497C47.9746 28.3307 47.9131 28.4054 47.8443 28.4742C47.776 28.5429 47.7009 28.604 47.6203 28.6584C47.5392 28.7123 47.4539 28.7577 47.3644 28.795C47.2744 28.8319 47.1819 28.8599 47.0864 28.879C46.9909 28.8977 46.895 28.9075 46.7978 28.9075H40.8768C40.7792 28.9075 40.6833 28.8977 40.5878 28.879C40.4923 28.8599 40.3998 28.8319 40.3103 28.7946C40.2203 28.7577 40.135 28.7118 40.0544 28.6579C39.9733 28.604 39.8986 28.5425 39.8299 28.4738C39.7611 28.405 39.7 28.3303 39.6457 28.2497C39.5918 28.169 39.5464 28.0837 39.509 27.9938C39.4717 27.9042 39.4437 27.8117 39.425 27.7162C39.4059 27.6212 39.3962 27.5248 39.3966 27.4277C39.3962 27.3305 39.4059 27.2341 39.425 27.1391C39.4437 27.0436 39.4717 26.9511 39.509 26.8615C39.5464 26.7716 39.5918 26.6863 39.6457 26.6056C39.7 26.5246 39.7611 26.4499 39.8299 26.3811C39.8986 26.3124 39.9733 26.2513 40.0544 26.1974C40.135 26.1435 40.2203 26.0976 40.3103 26.0607C40.3998 26.0234 40.4923 25.9954 40.5878 25.9763C40.6833 25.9572 40.7792 25.9478 40.8768 25.9478H46.7978C46.895 25.9478 46.9909 25.9572 47.0864 25.9763C47.1819 25.9949 47.2744 26.0229 47.3644 26.0603C47.4539 26.0976 47.5392 26.143 47.6203 26.1969C47.7009 26.2508 47.776 26.3124 47.8443 26.3811C47.9131 26.4499 47.9746 26.5246 48.0285 26.6052C48.0828 26.6863 48.1283 26.7716 48.1656 26.8611C48.2025 26.9511 48.2305 27.0436 48.2496 27.1391C48.2683 27.2341 48.2781 27.3305 48.2781 27.4277Z" fill="#004870"/>
</g>
</svg>
