<svg width="72" height="62" viewBox="0 0 72 62" fill="none" xmlns="http://www.w3.org/2000/svg">
<mask id="mask0_611_77226" style="mask-type:luminance" maskUnits="userSpaceOnUse" x="0" y="0" width="72" height="62">
<path d="M0.256836 0.459961H71.7986V61.5285H0.256836V0.459961Z" fill="white"/>
</mask>
<g mask="url(#mask0_611_77226)">
<path d="M70.6947 55.0913H67.4884V53.7562C67.4884 52.1626 66.2454 50.8667 64.7173 50.8667H57.5544L58.0517 28.2732H61.9593L62.4067 48.5963C62.4203 49.1993 62.8927 49.6785 63.4675 49.6785C63.4761 49.6785 63.4843 49.6781 63.4929 49.6781C64.0795 49.6639 64.5437 49.1573 64.5301 48.5457L64.0727 27.7613L65.1117 27.0638C65.4149 26.8596 65.5981 26.5094 65.5981 26.1323V24.127H67.4259C68.0125 24.127 68.4875 23.6312 68.4875 23.0197V20.7299C68.4875 20.1179 68.0125 19.623 67.4259 19.623C66.8388 19.623 66.3633 20.1183 66.3633 20.7299V21.9128H63.1221V18.6627H70.6947C71.197 18.6627 71.6299 18.2959 71.7337 17.7836C71.8371 17.2718 71.5828 16.7543 71.1231 16.5426L51.7148 7.61359C51.178 7.36641 50.5516 7.61973 50.3145 8.17883C50.0778 8.73839 50.3208 9.39201 50.8571 9.63871L65.6579 16.4485H6.35578L36.0068 2.80669L47.9781 8.31447C48.5148 8.56069 49.1413 8.30832 49.3784 7.74828C49.615 7.18871 49.372 6.53557 48.8357 6.28839L36.4357 0.583543C36.1628 0.457829 35.8514 0.457829 35.5785 0.583543L0.890574 16.5426C0.431363 16.7543 0.176599 17.2718 0.279955 17.7841C0.383312 18.2959 0.817137 18.6632 1.31896 18.6632H8.89164V21.9128H5.64996V20.7299C5.64996 20.1183 5.17488 19.623 4.58784 19.623C4.00124 19.623 3.52571 20.1183 3.52571 20.7299V23.0197C3.52571 23.6312 4.00124 24.127 4.58784 24.127H6.41561V26.1332C6.41561 26.5094 6.59875 26.8596 6.90202 27.0638L7.94103 27.7613L7.43241 50.8671H7.29641C5.76873 50.8671 4.52573 52.1626 4.52573 53.7562V55.0913H1.31896C0.732366 55.0913 0.256836 55.5871 0.256836 56.1986V60.4238C0.256836 61.0348 0.732366 61.5306 1.31896 61.5306H70.6947C71.2813 61.5306 71.7564 61.0344 71.7564 60.4238V56.1986C71.7564 55.5871 71.2813 55.0913 70.6947 55.0913ZM57.9112 18.6632H60.9983V21.9128H57.9112V18.6632ZM56.5367 24.127H63.4747V25.5292L62.6851 26.059H57.3259L56.5367 25.5292V24.127ZM52.7007 18.6632H55.7878V21.9128H52.7007V18.6632ZM53.1119 27.0638C53.4156 26.8596 53.5992 26.5094 53.5992 26.1332V24.127H54.4129V26.1332C54.4129 26.5094 54.5961 26.8596 54.8993 27.0638L55.9383 27.7613L55.4297 50.8671H52.582L52.0733 27.7613L53.1119 27.0638ZM45.3271 26.059L44.5369 25.5292V24.127H51.4754V25.5292L50.6853 26.059H45.3271ZM50.4577 50.8667H45.5555L46.0524 28.2732H49.9604L50.4577 50.8667ZM47.4903 18.6632H50.5769V21.9128H47.4903V18.6632ZM42.2794 18.6632H45.366V21.9128H42.2794V18.6632ZM41.5994 26.1332V24.127H42.4131V26.1332C42.4131 26.5094 42.5963 26.8596 42.9 27.0638L43.939 27.7613L43.4304 50.8671H40.5822L40.074 27.7613L41.113 27.0638C41.4163 26.8596 41.5994 26.5094 41.5994 26.1332ZM37.0685 18.6632H40.1556V21.9128H37.0685V18.6632ZM33.3277 26.059L32.5381 25.5292V24.127H39.4761V25.5292H39.4756L38.6864 26.059H33.3277ZM38.4579 50.8667H33.5558L34.053 28.2732H37.9606L38.4579 50.8667ZM31.8581 18.6632H34.9447V21.9128H31.8581V18.6632ZM30.9007 27.0638L31.9397 27.7613L31.4306 50.8671H28.5833L28.0742 27.7613L29.1132 27.0638C29.417 26.8596 29.6001 26.5094 29.6001 26.1332V24.127H30.4138V26.1332C30.4138 26.5094 30.5974 26.8596 30.9007 27.0638ZM26.6476 18.6632H29.7343V21.9128H26.6476V18.6632ZM21.4372 18.6632H24.5239V21.9128H21.4372V18.6632ZM20.5383 24.127H27.4768V25.5292L26.6866 26.059H21.328L20.5383 25.5292V24.127ZM16.2263 18.6632H19.3134V21.9128H16.2263V18.6632ZM17.1139 27.0638C17.4176 26.8596 17.6008 26.5094 17.6008 26.1332V24.127H18.4145V26.1332C18.4145 26.5094 18.5976 26.8596 18.9009 27.0638L19.9399 27.7613L19.8497 31.8763C19.8361 32.4879 20.3003 32.9945 20.8869 33.0087C21.4794 33.0201 21.9594 32.5385 21.9726 31.9269L22.0533 28.2736H25.9609L26.4582 50.8671H21.556L21.8982 35.324C21.9118 34.7129 21.4476 34.2058 20.861 34.1916C20.8529 34.1916 20.8452 34.1916 20.8366 34.1916C20.2613 34.1916 19.7885 34.6704 19.7753 35.273L19.4322 50.8671H16.584L16.0758 27.7613L17.1139 27.0638ZM11.0154 18.6632H14.1021V21.9128H11.0154V18.6632ZM8.53941 24.127H15.4774V25.5292L14.6878 26.059H9.32909L8.53941 25.5292V24.127ZM14.4597 50.8667H9.55711L10.0548 28.2732H13.962L14.4597 50.8667ZM6.64953 53.7562C6.64953 53.3838 6.9392 53.0813 7.29641 53.0813H64.7173C65.074 53.0813 65.3642 53.3838 65.3642 53.7562V55.0913H6.64953V53.7562ZM69.6331 59.316H2.38108V57.3055H69.6331V59.316Z" fill="#004870"/>
</g>
</svg>
