<svg width="56" height="62" viewBox="0 0 56 62" fill="none" xmlns="http://www.w3.org/2000/svg">
<mask id="mask0_611_77238" style="mask-type:luminance" maskUnits="userSpaceOnUse" x="0" y="0" width="56" height="62">
<path d="M0.388672 0.953125H55.6387V61.1198H0.388672V0.953125Z" fill="white"/>
</mask>
<g mask="url(#mask0_611_77238)">
<path d="M6.68663 0.953287C6.49392 0.953287 6.30208 0.997124 6.12543 1.08523L4.17752 2.05962L2.2296 1.08523C1.84071 0.892089 1.38064 0.911186 1.00911 1.13905C0.640625 1.36865 0.414062 1.77143 0.414062 2.20676V57.3595C0.414062 58.0527 0.975694 58.613 1.6684 58.613H31.8702C31.1788 57.843 30.5642 57.0058 30.0421 56.1061H2.92274V4.23367L3.61632 4.58133C3.96875 4.75797 4.38498 4.75797 4.73872 4.58133L6.68663 3.60693L8.63455 4.58133C8.98698 4.75797 9.40278 4.75797 9.75651 4.58133L11.7044 3.60693L13.6523 4.58133C14.0052 4.75797 14.421 4.75797 14.7747 4.58133L16.7227 3.60693L18.6706 4.58133C19.023 4.75797 19.4392 4.75797 19.793 4.58133L21.7409 3.60693L23.6888 4.58133C24.0412 4.75797 24.457 4.75797 24.8112 4.58133L26.7591 3.60693L28.707 4.58133C29.0595 4.75797 29.4753 4.75797 29.829 4.58133L31.7769 3.60693L33.7248 4.58133C34.0777 4.75797 34.4935 4.75797 34.8472 4.58133L36.7951 3.60693L38.7431 4.58133C39.0955 4.75797 39.5117 4.75797 39.8655 4.58133L41.8134 3.60693L43.7613 4.58133C44.1137 4.75797 44.5295 4.75797 44.8833 4.58133L45.5768 4.23367V33.7688C46.4414 33.9142 47.2778 34.1317 48.0859 34.4173V2.20676C48.0859 1.77143 47.8594 1.36865 47.4905 1.13905C47.1189 0.909884 46.658 0.892089 46.2704 1.08523L44.3225 2.05962L42.3746 1.08523C42.0217 0.908582 41.6059 0.908582 41.2522 1.08523L39.3043 2.05962L37.3563 1.08523C37.0039 0.908582 36.5877 0.908582 36.2339 1.08523L34.286 2.05962L32.3381 1.08523C31.9857 0.908582 31.5699 0.908582 31.2161 1.08523L29.2678 2.05962L27.3199 1.08523C26.9674 0.908582 26.5517 0.908582 26.1979 1.08523L24.25 2.05962L22.3021 1.08523C21.9492 0.908582 21.5334 0.908582 21.1797 1.08523L19.2318 2.05962L17.2839 1.08523C16.9314 0.908582 16.5152 0.908582 16.1615 1.08523L14.2135 2.05962L12.2656 1.08523C11.9132 0.908582 11.4974 0.908582 11.1437 1.08523L9.19575 2.05962L7.2474 1.08523C7.07118 0.997124 6.87891 0.953287 6.68663 0.953287ZM9.19575 12.2345C9.11241 12.2332 9.02995 12.2402 8.94835 12.2554C8.86675 12.2706 8.78733 12.2936 8.71007 12.3248C8.63281 12.3556 8.55946 12.3938 8.49002 12.4394C8.42057 12.485 8.35634 12.5371 8.29688 12.5952C8.23785 12.6534 8.1849 12.7172 8.13846 12.7858C8.09158 12.8548 8.05252 12.9272 8.0204 13.0041C7.98828 13.0805 7.96398 13.1595 7.94792 13.241C7.93142 13.3226 7.92318 13.4047 7.92318 13.488C7.92318 13.5709 7.93142 13.6529 7.94792 13.7345C7.96398 13.8161 7.98828 13.8951 8.0204 13.9715C8.05252 14.0483 8.09158 14.1208 8.13846 14.1898C8.1849 14.2584 8.23785 14.3222 8.29688 14.3804C8.35634 14.439 8.42057 14.4906 8.49002 14.5362C8.55946 14.5818 8.63281 14.62 8.71007 14.6512C8.78733 14.682 8.86675 14.705 8.94835 14.7202C9.02995 14.7354 9.11241 14.7423 9.19575 14.7415H28.0135C28.0968 14.7423 28.1788 14.7354 28.2609 14.7202C28.3424 14.705 28.4219 14.682 28.4991 14.6512C28.576 14.62 28.6493 14.5818 28.7192 14.5362C28.7886 14.4906 28.8529 14.439 28.9119 14.3804C28.9714 14.3222 29.0243 14.2584 29.0707 14.1898C29.1172 14.1208 29.1567 14.0483 29.1888 13.9715C29.2205 13.8951 29.2448 13.8161 29.2613 13.7345C29.2778 13.6529 29.286 13.5709 29.286 13.488C29.286 13.4047 29.2778 13.3226 29.2613 13.241C29.2448 13.1595 29.2205 13.0805 29.1888 13.0041C29.1567 12.9272 29.1172 12.8548 29.0707 12.7858C29.0243 12.7172 28.9714 12.6534 28.9119 12.5952C28.8529 12.5371 28.7886 12.485 28.7192 12.4394C28.6493 12.3938 28.576 12.3556 28.4991 12.3248C28.4219 12.2936 28.3424 12.2706 28.2609 12.2554C28.1788 12.2402 28.0968 12.2332 28.0135 12.2345H9.19575ZM35.5408 12.2345C35.4575 12.2332 35.375 12.2402 35.2934 12.2554C35.2118 12.2706 35.1324 12.2936 35.0551 12.3248C34.9779 12.3556 34.9045 12.3938 34.8351 12.4394C34.7656 12.485 34.7014 12.5371 34.6419 12.5952C34.5829 12.6534 34.5299 12.7172 34.4835 12.7858C34.4371 12.8548 34.3976 12.9272 34.3655 13.0041C34.3333 13.0805 34.309 13.1595 34.293 13.241C34.2765 13.3226 34.2682 13.4047 34.2682 13.488C34.2682 13.5709 34.2765 13.6529 34.293 13.7345C34.309 13.8161 34.3333 13.8951 34.3655 13.9715C34.3976 14.0483 34.4371 14.1208 34.4835 14.1898C34.5299 14.2584 34.5829 14.3222 34.6419 14.3804C34.7014 14.439 34.7656 14.4906 34.8351 14.5362C34.9045 14.5818 34.9779 14.62 35.0551 14.6512C35.1324 14.682 35.2118 14.705 35.2934 14.7202C35.375 14.7354 35.4575 14.7423 35.5408 14.7415H39.3043C39.3872 14.7423 39.4696 14.7354 39.5517 14.7202C39.6333 14.705 39.7127 14.682 39.7899 14.6512C39.8668 14.62 39.9401 14.5818 40.0096 14.5362C40.0794 14.4906 40.1437 14.439 40.2027 14.3804C40.2622 14.3222 40.3147 14.2584 40.3615 14.1898C40.408 14.1208 40.4475 14.0483 40.4792 13.9715C40.5113 13.8951 40.5356 13.8161 40.5521 13.7345C40.5686 13.6529 40.5764 13.5709 40.5764 13.488C40.5764 13.4047 40.5686 13.3226 40.5521 13.241C40.5356 13.1595 40.5113 13.0805 40.4792 13.0041C40.4475 12.9272 40.408 12.8548 40.3615 12.7858C40.3147 12.7172 40.2622 12.6534 40.2027 12.5952C40.1437 12.5371 40.0794 12.485 40.0096 12.4394C39.9401 12.3938 39.8668 12.3556 39.7899 12.3248C39.7127 12.2936 39.6333 12.2706 39.5517 12.2554C39.4696 12.2402 39.3872 12.2332 39.3043 12.2345H35.5408ZM9.19575 19.7554C9.11241 19.7541 9.02995 19.761 8.94835 19.7762C8.86675 19.7914 8.78733 19.8144 8.71007 19.8456C8.63281 19.8765 8.55946 19.9147 8.49002 19.9602C8.42057 20.0058 8.3559 20.0575 8.29688 20.116C8.23785 20.1742 8.1849 20.238 8.13846 20.3066C8.09158 20.3756 8.05252 20.4481 8.0204 20.5249C7.98828 20.6013 7.96398 20.6803 7.94748 20.7619C7.93142 20.8435 7.92318 20.9255 7.92318 21.0088C7.92318 21.0917 7.93142 21.1738 7.94748 21.2554C7.96398 21.337 7.98828 21.416 8.0204 21.4923C8.05252 21.5692 8.09158 21.6417 8.13846 21.7107C8.1849 21.7792 8.23785 21.843 8.29688 21.9012C8.3559 21.9598 8.42057 22.0114 8.49002 22.057C8.55946 22.1026 8.63281 22.1408 8.71007 22.172C8.78733 22.2029 8.86675 22.2259 8.94835 22.241C9.02995 22.2562 9.11241 22.2632 9.19575 22.2623H22.9952C23.0786 22.2632 23.161 22.2562 23.2426 22.241C23.3242 22.2259 23.4036 22.2029 23.4809 22.172C23.5582 22.1408 23.6315 22.1026 23.701 22.057C23.7704 22.0114 23.8346 21.9598 23.8941 21.9012C23.9531 21.843 24.0061 21.7792 24.0525 21.7107C24.099 21.6417 24.1385 21.5692 24.1706 21.4923C24.2027 21.416 24.227 21.337 24.2431 21.2554C24.2596 21.1738 24.2678 21.0917 24.2678 21.0088C24.2678 20.9255 24.2596 20.8435 24.2431 20.7619C24.227 20.6803 24.2027 20.6013 24.1706 20.5249C24.1385 20.4481 24.099 20.3756 24.0525 20.3066C24.0061 20.238 23.9531 20.1742 23.8941 20.116C23.8346 20.0575 23.7704 20.0058 23.701 19.9602C23.6315 19.9147 23.5582 19.8765 23.4809 19.8456C23.4036 19.8144 23.3242 19.7914 23.2426 19.7762C23.161 19.761 23.0786 19.7541 22.9952 19.7554H9.19575ZM35.5408 19.7554C35.4575 19.7541 35.375 19.761 35.2934 19.7762C35.2118 19.7914 35.1324 19.8144 35.0551 19.8456C34.9779 19.8765 34.9045 19.9147 34.8351 19.9602C34.7656 20.0058 34.7014 20.0575 34.6419 20.116C34.5829 20.1742 34.5299 20.238 34.4835 20.3066C34.4366 20.3756 34.3976 20.4481 34.3655 20.5249C34.3333 20.6013 34.309 20.6803 34.293 20.7619C34.2765 20.8435 34.2682 20.9255 34.2682 21.0088C34.2682 21.0917 34.2765 21.1738 34.293 21.2554C34.309 21.337 34.3333 21.416 34.3655 21.4923C34.3976 21.5692 34.4366 21.6417 34.4835 21.7107C34.5299 21.7792 34.5829 21.843 34.6419 21.9012C34.7014 21.9598 34.7656 22.0114 34.8351 22.057C34.9045 22.1026 34.9779 22.1408 35.0551 22.172C35.1324 22.2029 35.2118 22.2259 35.2934 22.241C35.375 22.2562 35.4575 22.2632 35.5408 22.2623H39.3043C39.3872 22.2632 39.4696 22.2562 39.5517 22.241C39.6333 22.2259 39.7127 22.2029 39.7899 22.172C39.8668 22.1408 39.9401 22.1026 40.0096 22.057C40.0794 22.0114 40.1437 21.9598 40.2027 21.9012C40.2622 21.843 40.3151 21.7792 40.3615 21.7107C40.408 21.6417 40.4475 21.5692 40.4796 21.4923C40.5113 21.416 40.5356 21.337 40.5521 21.2554C40.5686 21.1738 40.5768 21.0917 40.5768 21.0088C40.5768 20.9255 40.5686 20.8435 40.5521 20.7619C40.5356 20.6803 40.5113 20.6013 40.4796 20.5249C40.4475 20.4481 40.408 20.3756 40.3615 20.3066C40.3151 20.238 40.2622 20.1742 40.2027 20.116C40.1437 20.0575 40.0794 20.0058 40.0096 19.9602C39.9401 19.9147 39.8668 19.8765 39.7899 19.8456C39.7127 19.8144 39.6333 19.7914 39.5517 19.7762C39.4696 19.761 39.3872 19.7541 39.3043 19.7554H35.5408ZM9.19575 27.2762C9.11241 27.2749 9.02995 27.2818 8.94835 27.297C8.86675 27.3122 8.78733 27.3352 8.71007 27.3665C8.63281 27.3973 8.55946 27.4355 8.49002 27.4811C8.42057 27.5266 8.3559 27.5783 8.29688 27.6369C8.23785 27.695 8.1849 27.7588 8.13846 27.8274C8.09158 27.8964 8.05252 27.9689 8.0204 28.0457C7.98828 28.1221 7.96398 28.2011 7.94748 28.2827C7.93142 28.3643 7.92318 28.4463 7.92318 28.5297C7.92318 28.6126 7.93142 28.6946 7.94748 28.7762C7.96398 28.8578 7.98828 28.9368 8.0204 29.0132C8.05252 29.09 8.09158 29.1625 8.13846 29.2315C8.1849 29.3001 8.23785 29.3639 8.29688 29.422C8.3559 29.4806 8.42057 29.5323 8.49002 29.5779C8.55946 29.6234 8.63281 29.6616 8.71007 29.6929C8.78733 29.7237 8.86675 29.7467 8.94835 29.7619C9.02995 29.7771 9.11241 29.784 9.19575 29.7831H28.0135C28.0968 29.784 28.1788 29.7771 28.2609 29.7619C28.3424 29.7467 28.4219 29.7237 28.4991 29.6929C28.576 29.6616 28.6493 29.6234 28.7192 29.5779C28.7886 29.5323 28.8529 29.4806 28.9119 29.422C28.9714 29.3639 29.0243 29.3001 29.0707 29.2315C29.1172 29.1625 29.1567 29.09 29.1888 29.0132C29.2209 28.9368 29.2448 28.8578 29.2613 28.7762C29.2778 28.6946 29.286 28.6126 29.286 28.5297C29.286 28.4463 29.2778 28.3643 29.2613 28.2827C29.2448 28.2011 29.2209 28.1221 29.1888 28.0457C29.1567 27.9689 29.1172 27.8964 29.0707 27.8274C29.0243 27.7588 28.9714 27.695 28.9119 27.6369C28.8529 27.5783 28.7886 27.5266 28.7192 27.4811C28.6493 27.4355 28.576 27.3973 28.4991 27.3665C28.4219 27.3352 28.3424 27.3122 28.2609 27.297C28.1788 27.2818 28.0968 27.2749 28.0135 27.2762H9.19575ZM35.5408 27.2762C35.4575 27.2749 35.375 27.2818 35.2934 27.297C35.2118 27.3122 35.1324 27.3352 35.0551 27.3665C34.9779 27.3973 34.9045 27.4355 34.8351 27.4811C34.7656 27.5266 34.7014 27.5783 34.6419 27.6369C34.5829 27.695 34.5299 27.7588 34.4835 27.8274C34.4366 27.8964 34.3976 27.9689 34.3655 28.0457C34.3333 28.1221 34.309 28.2011 34.293 28.2827C34.2765 28.3643 34.2682 28.4463 34.2682 28.5297C34.2682 28.6126 34.2765 28.6946 34.293 28.7762C34.309 28.8578 34.3333 28.9368 34.3655 29.0132C34.3976 29.09 34.4366 29.1625 34.4835 29.2315C34.5299 29.3001 34.5829 29.3639 34.6419 29.422C34.7014 29.4806 34.7656 29.5323 34.8351 29.5779C34.9045 29.6234 34.9779 29.6616 35.0551 29.6929C35.1324 29.7237 35.2118 29.7467 35.2934 29.7619C35.375 29.7771 35.4575 29.784 35.5408 29.7831H39.3043C39.3872 29.784 39.4696 29.7771 39.5517 29.7619C39.6333 29.7467 39.7127 29.7237 39.7899 29.6929C39.8668 29.6616 39.9401 29.6234 40.0096 29.5779C40.0794 29.5323 40.1437 29.4806 40.2027 29.422C40.2622 29.3639 40.3151 29.3001 40.3615 29.2315C40.408 29.1625 40.4475 29.09 40.4796 29.0132C40.5113 28.9368 40.5356 28.8578 40.5521 28.7762C40.5686 28.6946 40.5768 28.6126 40.5768 28.5297C40.5768 28.4463 40.5686 28.3643 40.5521 28.2827C40.5356 28.2011 40.5113 28.1221 40.4796 28.0457C40.4475 27.9689 40.408 27.8964 40.3615 27.8274C40.3151 27.7588 40.2622 27.695 40.2027 27.6369C40.1437 27.5783 40.0794 27.5266 40.0096 27.4811C39.9401 27.4355 39.8668 27.3973 39.7899 27.3665C39.7127 27.3352 39.6333 27.3122 39.5517 27.297C39.4696 27.2818 39.3872 27.2749 39.3043 27.2762H35.5408ZM9.19575 34.797C9.11241 34.7957 9.02995 34.8027 8.94835 34.8179C8.86675 34.8331 8.78733 34.8561 8.71007 34.8873C8.63281 34.9181 8.55946 34.9563 8.49002 35.0019C8.42057 35.0475 8.3559 35.0991 8.29688 35.1577C8.23785 35.2159 8.1849 35.2797 8.13846 35.3483C8.09158 35.4173 8.05252 35.4897 8.0204 35.5666C7.98828 35.643 7.96398 35.722 7.94748 35.8035C7.93142 35.8851 7.92318 35.9672 7.92318 36.0505C7.92318 36.1334 7.93142 36.2154 7.94748 36.297C7.96398 36.3786 7.98828 36.4576 8.0204 36.534C8.05252 36.6108 8.09158 36.6833 8.13846 36.7523C8.1849 36.8209 8.23785 36.8847 8.29688 36.9429C8.3559 37.0015 8.42057 37.0531 8.49002 37.0987C8.55946 37.1443 8.63281 37.1825 8.71007 37.2137C8.78733 37.2445 8.86675 37.2675 8.94835 37.2827C9.02995 37.2979 9.11241 37.3049 9.19575 37.304H22.9952C23.0786 37.3049 23.161 37.2979 23.2426 37.2827C23.3242 37.2675 23.4036 37.2445 23.4809 37.2137C23.5582 37.1825 23.6315 37.1443 23.701 37.0987C23.7704 37.0531 23.8346 37.0015 23.8941 36.9429C23.9531 36.8847 24.0061 36.8209 24.0525 36.7523C24.099 36.6833 24.1385 36.6108 24.1706 36.534C24.2027 36.4576 24.227 36.3786 24.2431 36.297C24.2596 36.2154 24.2678 36.1334 24.2678 36.0505C24.2678 35.9672 24.2596 35.8851 24.2431 35.8035C24.227 35.722 24.2027 35.643 24.1706 35.5666C24.1385 35.4897 24.099 35.4173 24.0525 35.3483C24.0061 35.2797 23.9531 35.2159 23.8941 35.1577C23.8346 35.0991 23.7704 35.0475 23.701 35.0019C23.6315 34.9563 23.5582 34.9181 23.4809 34.8873C23.4036 34.8561 23.3242 34.8331 23.2426 34.8179C23.161 34.8027 23.0786 34.7957 22.9952 34.797H9.19575ZM43.0677 36.0505C36.168 36.0505 30.5226 41.6911 30.5226 48.5852C30.5226 55.4793 36.168 61.12 43.0677 61.12C49.9679 61.12 55.6129 55.4793 55.6129 48.5852C55.6129 41.6911 49.9679 36.0505 43.0677 36.0505ZM43.0677 38.5575C48.5877 38.5575 53.1042 43.0696 53.1042 48.5852C53.1042 54.1004 48.5877 58.613 43.0677 58.613C37.5477 58.613 33.0317 54.1004 33.0317 48.5852C33.0317 43.0696 37.5477 38.5575 43.0677 38.5575ZM9.19575 42.3179C9.11328 42.3179 9.03168 42.3257 8.95096 42.3417C8.87023 42.3578 8.79167 42.3817 8.71528 42.4129C8.63932 42.4446 8.56728 42.4832 8.4987 42.5288C8.43012 42.5748 8.36675 42.6265 8.30859 42.6846C8.25043 42.7432 8.19835 42.8062 8.15234 42.8747C8.10677 42.9433 8.06814 43.0154 8.03646 43.0913C8.00521 43.1677 7.98134 43.2458 7.96528 43.3266C7.94922 43.4073 7.94097 43.4889 7.94097 43.5713C7.94097 43.6534 7.94922 43.735 7.96528 43.8157C7.98134 43.8964 8.00521 43.975 8.03646 44.0509C8.06814 44.1269 8.10677 44.1989 8.15234 44.2675C8.19835 44.3361 8.25043 44.3995 8.30859 44.4576C8.36675 44.5158 8.43012 44.5674 8.4987 44.6134C8.56728 44.659 8.63932 44.6976 8.71528 44.7293C8.79167 44.7606 8.87023 44.7845 8.95096 44.8005C9.03168 44.8166 9.11328 44.8248 9.19575 44.8248C9.27778 44.8248 9.35938 44.8166 9.4401 44.8005C9.52127 44.7845 9.59939 44.7606 9.67578 44.7293C9.75174 44.6976 9.82422 44.659 9.89236 44.6134C9.96094 44.5674 10.0243 44.5158 10.0825 44.4576C10.1411 44.3995 10.1927 44.3361 10.2387 44.2675C10.2843 44.1989 10.3229 44.1269 10.3546 44.0509C10.3863 43.975 10.4097 43.8964 10.4258 43.8157C10.4418 43.735 10.4501 43.6534 10.4501 43.5713C10.4501 43.4889 10.4418 43.4073 10.4258 43.3266C10.4097 43.2458 10.3863 43.1677 10.3546 43.0913C10.3229 43.0154 10.2843 42.9433 10.2387 42.8747C10.1927 42.8062 10.1411 42.7432 10.0825 42.6846C10.0243 42.6265 9.96094 42.5748 9.89236 42.5288C9.82422 42.4832 9.75174 42.4446 9.67578 42.4129C9.59939 42.3817 9.52127 42.3578 9.4401 42.3417C9.35938 42.3257 9.27778 42.3179 9.19575 42.3179ZM12.9592 42.3179C12.8767 42.3179 12.7951 42.3257 12.7144 42.3417C12.6337 42.3578 12.5551 42.3817 12.4792 42.4129C12.4028 42.4446 12.3307 42.4832 12.2622 42.5288C12.1936 42.5748 12.1302 42.6265 12.072 42.6846C12.0139 42.7432 11.9618 42.8062 11.9162 42.8747C11.8702 42.9433 11.8316 43.0154 11.7999 43.0913C11.7687 43.1677 11.7448 43.2458 11.7287 43.3266C11.7127 43.4073 11.7044 43.4889 11.7044 43.5713C11.7044 43.6534 11.7127 43.735 11.7287 43.8157C11.7448 43.8964 11.7687 43.975 11.7999 44.0509C11.8316 44.1269 11.8702 44.1989 11.9162 44.2675C11.9618 44.3361 12.0139 44.3995 12.072 44.4576C12.1302 44.5158 12.1936 44.5674 12.2622 44.6134C12.3307 44.659 12.4028 44.6976 12.4792 44.7293C12.5551 44.7606 12.6337 44.7845 12.7144 44.8005C12.7951 44.8166 12.8767 44.8248 12.9592 44.8248C13.0417 44.8248 13.1233 44.8166 13.204 44.8005C13.2847 44.7845 13.3633 44.7606 13.4392 44.7293C13.5152 44.6976 13.5877 44.659 13.6563 44.6134C13.7244 44.5674 13.7878 44.5158 13.8464 44.4576C13.9045 44.3995 13.9566 44.3361 14.0022 44.2675C14.0482 44.1989 14.0868 44.1269 14.1181 44.0509C14.1497 43.975 14.1736 43.8964 14.1897 43.8157C14.2057 43.735 14.2135 43.6534 14.2135 43.5713C14.2135 43.4889 14.2057 43.4073 14.1897 43.3266C14.1736 43.2458 14.1497 43.1677 14.1181 43.0913C14.0868 43.0154 14.0482 42.9433 14.0022 42.8747C13.9566 42.8062 13.9045 42.7432 13.8464 42.6846C13.7878 42.6265 13.7244 42.5748 13.6563 42.5288C13.5877 42.4832 13.5152 42.4446 13.4392 42.4129C13.3633 42.3817 13.2847 42.3578 13.204 42.3417C13.1233 42.3257 13.0417 42.3179 12.9592 42.3179ZM16.7227 42.3179C16.6402 42.3179 16.5586 42.3257 16.4779 42.3417C16.3971 42.3578 16.3186 42.3817 16.2426 42.4129C16.1667 42.4446 16.0942 42.4832 16.0256 42.5288C15.957 42.5748 15.8937 42.6265 15.8355 42.6846C15.7773 42.7432 15.7253 42.8062 15.6797 42.8747C15.6337 42.9433 15.5951 43.0154 15.5638 43.0913C15.5321 43.1677 15.5082 43.2458 15.4922 43.3266C15.4761 43.4073 15.4683 43.4889 15.4683 43.5713C15.4683 43.6534 15.4761 43.735 15.4922 43.8157C15.5082 43.8964 15.5321 43.975 15.5638 44.0509C15.5951 44.1269 15.6337 44.1989 15.6797 44.2675C15.7253 44.3361 15.7773 44.3995 15.8355 44.4576C15.8937 44.5158 15.957 44.5674 16.0256 44.6134C16.0942 44.659 16.1667 44.6976 16.2426 44.7293C16.3186 44.7606 16.3971 44.7845 16.4779 44.8005C16.5586 44.8166 16.6402 44.8248 16.7227 44.8248C16.8051 44.8248 16.8867 44.8166 16.9674 44.8005C17.0482 44.7845 17.1267 44.7606 17.2027 44.7293C17.2791 44.6976 17.3511 44.659 17.4197 44.6134C17.4883 44.5674 17.5517 44.5158 17.6098 44.4576C17.668 44.3995 17.7201 44.3361 17.7656 44.2675C17.8116 44.1989 17.8503 44.1269 17.8819 44.0509C17.9132 43.975 17.9371 43.8964 17.9531 43.8157C17.9692 43.735 17.9774 43.6534 17.9774 43.5713C17.9774 43.4889 17.9692 43.4073 17.9531 43.3266C17.9371 43.2458 17.9132 43.1677 17.8819 43.0913C17.8503 43.0154 17.8116 42.9433 17.7656 42.8747C17.7201 42.8062 17.668 42.7432 17.6098 42.6846C17.5517 42.6265 17.4883 42.5748 17.4197 42.5288C17.3511 42.4832 17.2791 42.4446 17.2027 42.4129C17.1267 42.3817 17.0482 42.3578 16.9674 42.3417C16.8867 42.3257 16.8051 42.3179 16.7227 42.3179ZM20.4861 42.3179C20.4041 42.3179 20.3225 42.3257 20.2418 42.3417C20.1606 42.3578 20.0825 42.3817 20.0061 42.4129C19.9301 42.4446 19.8576 42.4832 19.7895 42.5288C19.7209 42.5748 19.6576 42.6265 19.5994 42.6846C19.5408 42.7432 19.4892 42.8062 19.4431 42.8747C19.3976 42.9433 19.3589 43.0154 19.3273 43.0913C19.2956 43.1677 19.2721 43.2458 19.2561 43.3266C19.24 43.4073 19.2318 43.4889 19.2318 43.5713C19.2318 43.6534 19.24 43.735 19.2561 43.8157C19.2721 43.8964 19.2956 43.975 19.3273 44.0509C19.3589 44.1269 19.3976 44.1989 19.4431 44.2675C19.4892 44.3361 19.5408 44.3995 19.5994 44.4576C19.6576 44.5158 19.7209 44.5674 19.7895 44.6134C19.8576 44.659 19.9301 44.6976 20.0061 44.7293C20.0825 44.7606 20.1606 44.7845 20.2418 44.8005C20.3225 44.8166 20.4041 44.8248 20.4861 44.8248C20.5686 44.8248 20.6502 44.8166 20.7309 44.8005C20.8116 44.7845 20.8902 44.7606 20.9666 44.7293C21.0425 44.6976 21.1146 44.659 21.1832 44.6134C21.2517 44.5674 21.3151 44.5158 21.3733 44.4576C21.4314 44.3995 21.4835 44.3361 21.5295 44.2675C21.5751 44.1989 21.6137 44.1269 21.6454 44.0509C21.6767 43.975 21.7005 43.8964 21.7166 43.8157C21.7326 43.735 21.7409 43.6534 21.7409 43.5713C21.7409 43.4889 21.7326 43.4073 21.7166 43.3266C21.7005 43.2458 21.6767 43.1677 21.6454 43.0913C21.6137 43.0154 21.5751 42.9433 21.5295 42.8747C21.4835 42.8062 21.4314 42.7432 21.3733 42.6846C21.3151 42.6265 21.2517 42.5748 21.1832 42.5288C21.1146 42.4832 21.0425 42.4446 20.9666 42.4129C20.8902 42.3817 20.8116 42.3578 20.7309 42.3417C20.6502 42.3257 20.5686 42.3179 20.4861 42.3179ZM24.25 42.3179C24.1675 42.3179 24.0859 42.3257 24.0052 42.3417C23.9245 42.3578 23.8459 42.3817 23.77 42.4129C23.6936 42.4446 23.6215 42.4832 23.553 42.5288C23.4844 42.5748 23.421 42.6265 23.3628 42.6846C23.3047 42.7432 23.2526 42.8062 23.2066 42.8747C23.161 42.9433 23.1224 43.0154 23.0907 43.0913C23.0595 43.1677 23.0356 43.2458 23.0195 43.3266C23.0035 43.4073 22.9952 43.4889 22.9952 43.5713C22.9952 43.6534 23.0035 43.735 23.0195 43.8157C23.0356 43.8964 23.0595 43.975 23.0907 44.0509C23.1224 44.1269 23.161 44.1989 23.2066 44.2675C23.2526 44.3361 23.3047 44.3995 23.3628 44.4576C23.421 44.5158 23.4844 44.5674 23.553 44.6134C23.6215 44.659 23.6936 44.6976 23.77 44.7293C23.8459 44.7606 23.9245 44.7845 24.0052 44.8005C24.0859 44.8166 24.1675 44.8248 24.25 44.8248C24.332 44.8248 24.4136 44.8166 24.4948 44.8005C24.5755 44.7845 24.6536 44.7606 24.73 44.7293C24.806 44.6976 24.8785 44.659 24.9471 44.6134C25.0152 44.5674 25.0786 44.5158 25.1372 44.4576C25.1953 44.3995 25.2474 44.3361 25.293 44.2675C25.3385 44.1989 25.3772 44.1269 25.4089 44.0509C25.4405 43.975 25.4644 43.8964 25.4805 43.8157C25.4965 43.735 25.5043 43.6534 25.5043 43.5713C25.5043 43.4889 25.4965 43.4073 25.4805 43.3266C25.4644 43.2458 25.4405 43.1677 25.4089 43.0913C25.3772 43.0154 25.3385 42.9433 25.293 42.8747C25.2474 42.8062 25.1953 42.7432 25.1372 42.6846C25.0786 42.6265 25.0152 42.5748 24.9471 42.5288C24.8785 42.4832 24.806 42.4446 24.73 42.4129C24.6536 42.3817 24.5755 42.3578 24.4948 42.3417C24.4136 42.3257 24.332 42.3179 24.25 42.3179ZM28.0135 42.3179C27.931 42.3179 27.8494 42.3257 27.7687 42.3417C27.6879 42.3578 27.6094 42.3817 27.5334 42.4129C27.4575 42.4446 27.385 42.4832 27.3164 42.5288C27.2478 42.5748 27.1845 42.6265 27.1263 42.6846C27.0681 42.7432 27.0161 42.8062 26.9705 42.8747C26.9245 42.9433 26.8859 43.0154 26.8546 43.0913C26.8229 43.1677 26.799 43.2458 26.783 43.3266C26.7669 43.4073 26.7591 43.4889 26.7591 43.5713C26.7591 43.6534 26.7669 43.735 26.783 43.8157C26.799 43.8964 26.8229 43.975 26.8546 44.0509C26.8859 44.1269 26.9245 44.1989 26.9705 44.2675C27.0161 44.3361 27.0681 44.3995 27.1263 44.4576C27.1845 44.5158 27.2478 44.5674 27.3164 44.6134C27.385 44.659 27.4575 44.6976 27.5334 44.7293C27.6094 44.7606 27.6879 44.7845 27.7687 44.8005C27.8494 44.8166 27.931 44.8248 28.0135 44.8248C28.0959 44.8248 28.1775 44.8166 28.2582 44.8005C28.339 44.7845 28.4175 44.7606 28.4935 44.7293C28.5694 44.6976 28.6419 44.659 28.7105 44.6134C28.7791 44.5674 28.8424 44.5158 28.9006 44.4576C28.9588 44.3995 29.0109 44.3361 29.0564 44.2675C29.1024 44.1989 29.1411 44.1269 29.1723 44.0509C29.204 43.975 29.2279 43.8964 29.2439 43.8157C29.26 43.735 29.2678 43.6534 29.2678 43.5713C29.2678 43.4889 29.26 43.4073 29.2439 43.3266C29.2279 43.2458 29.204 43.1677 29.1723 43.0913C29.1411 43.0154 29.1024 42.9433 29.0564 42.8747C29.0109 42.8062 28.9588 42.7432 28.9006 42.6846C28.8424 42.6265 28.7791 42.5748 28.7105 42.5288C28.6419 42.4832 28.5694 42.4446 28.4935 42.4129C28.4175 42.3817 28.339 42.3578 28.2582 42.3417C28.1775 42.3257 28.0959 42.3179 28.0135 42.3179ZM48.4631 42.8196L41.6884 50.715L37.5473 47.5813L36.043 49.5887L41.9384 54.1009L50.3451 44.4476L48.4631 42.8196Z" fill="#004870"/>
</g>
</svg>
