<svg width="60" height="55" viewBox="0 0 60 55" fill="none" xmlns="http://www.w3.org/2000/svg">
<mask id="mask0_62_13" style="mask-type:luminance" maskUnits="userSpaceOnUse" x="5" y="23" width="50" height="32">
<path d="M54.0531 23.519H5.55273V54.1946H54.0531V23.519Z" fill="white"/>
</mask>
<g mask="url(#mask0_62_13)">
<path d="M51.336 54.4841H37.2306C36.6399 54.4841 36.0734 54.2494 35.6557 53.8318C35.238 53.4141 35.0034 52.8476 35.0034 52.2569V36.9265C35.0014 35.6375 34.4885 34.4018 33.577 33.4903C32.6655 32.5788 31.4298 32.0658 30.1407 32.0639H29.8958C28.6067 32.0658 27.371 32.5788 26.4595 33.4903C25.548 34.4018 25.0351 35.6375 25.0331 36.9265V52.2421C25.0331 52.8327 24.7985 53.3992 24.3808 53.8169C23.9631 54.2346 23.3966 54.4692 22.8059 54.4692H8.70051C8.01925 54.4692 7.3659 54.1986 6.88418 53.7169C6.40246 53.2352 6.13184 52.5818 6.13184 51.9006V24.9815C6.13184 24.6369 6.26871 24.3065 6.51236 24.0628C6.756 23.8192 7.08645 23.6823 7.43102 23.6823C7.77558 23.6823 8.10604 23.8192 8.34968 24.0628C8.59332 24.3065 8.7302 24.6369 8.7302 24.9815V51.8857H22.4644V36.9265C22.4663 34.9579 23.2446 33.0694 24.6304 31.6712C26.0161 30.2729 27.8975 29.4776 29.8661 29.4581H30.1036C32.0838 29.4601 33.9823 30.2475 35.3824 31.6477C36.7826 33.0479 37.5701 34.9464 37.5721 36.9265V51.8857H51.2989V25.0334C51.2853 24.8541 51.309 24.6738 51.3683 24.504C51.4276 24.3342 51.5214 24.1785 51.6437 24.0466C51.766 23.9147 51.9142 23.8095 52.0791 23.7375C52.2439 23.6656 52.4219 23.6284 52.6018 23.6284C52.7817 23.6284 52.9596 23.6656 53.1245 23.7375C53.2893 23.8095 53.4375 23.9147 53.5598 24.0466C53.6822 24.1785 53.7759 24.3342 53.8352 24.504C53.8946 24.6738 53.9182 24.8541 53.9047 25.0334V51.9154C53.9047 52.5967 53.634 53.25 53.1523 53.7317C52.6706 54.2134 52.0172 54.4841 51.336 54.4841Z" fill="#004870"/>
</g>
<mask id="mask1_62_13" style="mask-type:luminance" maskUnits="userSpaceOnUse" x="0" y="0" width="60" height="25">
<path d="M60 0H0V24.5063H60V0Z" fill="white"/>
</mask>
<g mask="url(#mask1_62_13)">
<path d="M58.493 24.3876C58.2086 24.3865 57.9324 24.2927 57.7061 24.1203L29.9778 3.0513L2.26439 24.1203C2.12852 24.231 1.97178 24.3131 1.8035 24.362C1.63523 24.4108 1.45885 24.4253 1.28486 24.4045C1.11087 24.3838 0.942834 24.3283 0.790736 24.2413C0.638638 24.1543 0.50559 24.0376 0.399506 23.8982C0.293423 23.7587 0.216471 23.5994 0.173229 23.4296C0.129986 23.2598 0.121337 23.083 0.147795 22.9098C0.174253 22.7366 0.235278 22.5705 0.32724 22.4213C0.419202 22.2722 0.540221 22.1431 0.6831 22.0417L29.1909 0.378696C29.4166 0.205318 29.6932 0.111328 29.9778 0.111328C30.2624 0.111328 30.5391 0.205318 30.7648 0.378696L59.28 22.0491C59.4986 22.2131 59.66 22.4418 59.7411 22.7028C59.8223 22.9638 59.819 23.2438 59.7318 23.5028C59.6447 23.7618 59.478 23.9868 59.2556 24.1456C59.0332 24.3045 58.7664 24.3892 58.493 24.3876Z" fill="#004870"/>
</g>
</svg>
