<svg version="1.2" xmlns="http://www.w3.org/2000/svg" viewBox="0 0 60 58" width="60" height="58"><defs><clipPath clipPathUnits="userSpaceOnUse" id="cp1"><path d="m28.6 33.89h30.69v23.44h-30.69z"/></clipPath><clipPath clipPathUnits="userSpaceOnUse" id="cp2"><path d="m0.71 0.7h51.13v51.11h-51.13z"/></clipPath></defs><style>.a{fill:#004870}</style><path class="a" d="m53.7 45.5q0 0 0 0h-3.2c-0.6 0-1.1 0.5-1.1 1.1 0 0.6 0.5 1.1 1.1 1.1q0 0 0 0h3.2c0.6 0 1.1-0.5 1.1-1.2 0-0.6-0.5-1-1.1-1z"/><path class="a" d="m37.5 45.5h-3.2c-0.6 0-1.1 0.4-1.1 1-0.1 0.7 0.4 1.2 1 1.2h3.2q0 0 0 0c0.6 0 1.1-0.5 1.1-1.1 0-0.6-0.4-1.1-1-1.1z"/><path class="a" d="m37.6 43.8h12.7c0.6 0 1.1-0.5 1.1-1.1q0-0.1 0-0.1c0-0.4-0.2-0.7-0.5-0.9q-0.2-0.1-0.6-0.1h-12.7c-0.4 0-0.8 0.2-1 0.5q-0.1 0.2-0.1 0.6c0 0.6 0.5 1.1 1.1 1.1z"/><g clip-path="url(#cp1)"><path fill-rule="evenodd" class="a" d="m58.3 44.2c0.6 0.8 1 1.8 1 2.8v7.9c0 1.3-1.1 2.4-2.5 2.4h-3.3c-1.3 0-2.4-1.1-2.4-2.4v-1.2h-14.3v1.2c0 1.3-1.1 2.4-2.4 2.4h-3.3c-1.4 0-2.5-1.1-2.5-2.4v-7.9c0-1 0.4-2 1-2.8l2-2.3-0.7-0.3c-0.5-0.3-0.7-0.9-0.5-1.5 0.3-0.5 0.9-0.8 1.5-0.5l0.9 0.4c0.7-1.6 1.9-4.2 1.9-4.3 0.5-1.1 1.5-1.8 2.7-1.8h12.9c1.1 0 2.1 0.7 2.6 1.8l2.1 4.4 1-0.5c0.6-0.3 1.3 0 1.5 0.5 0.3 0.6 0 1.2-0.5 1.5l-0.7 0.3q0.1 0 0.1 0.1zm-1.2 2.8c0-0.5-0.2-1-0.5-1.4l-1.8-2.2q-0.2-0.3-0.3-0.6-0.3 0-0.6-0.2-0.2-0.2-0.3-0.4l-0.2-0.5-2.5-5.2q0 0 0 0c-0.1-0.2-0.3-0.4-0.6-0.4h-12.9c-0.3 0-0.5 0.2-0.6 0.4-0.1 0.1-1.6 3.6-2.2 5q-0.1 0.2-0.2 0.4 0 0 0 0.1-0.2 0.3-0.4 0.4-0.1 0.1-0.2 0.2l-2.4 3c-0.4 0.4-0.5 0.9-0.5 1.4v7.8c0 0.2 0.1 0.3 0.2 0.3h3.3c0.2 0 0.3-0.1 0.3-0.3v-2.3c0-0.6 0.5-1.1 1.1-1.1h16.4c0.6 0 1.1 0.5 1.1 1.1v2.3c0 0.2 0.1 0.3 0.3 0.3h3.3c0.1 0 0.2-0.1 0.2-0.3z"/></g><path fill-rule="evenodd" class="a" d="m32.3 20.6c0 2.2-0.9 3.3-1.8 3.9q-1.6 1-3.9 1h-6c-0.6 0-1.1-0.4-1.1-1.1v-7.6c0-0.6 0.5-1.1 1.1-1.1h6q2.3 0 3.9 1.1c0.9 0.6 1.8 1.7 1.8 3.8zm-2.2 0c0-1.3-0.4-1.7-0.8-2q-1.1-0.7-2.7-0.7h-4.9v5.5h4.9q1.6-0.1 2.7-0.8c0.4-0.2 0.8-0.7 0.8-2z"/><path fill-rule="evenodd" class="a" d="m40.2 15.3q1.1 2.3 1.1 5.3 0 3.1-1.1 5.5-1 2.3-3 3.9-1.9 1.5-4.5 2.3-2.7 0.8-5.9 0.8h-5.1v8.7c0 0.7-0.2 1.3-0.7 1.7-0.5 0.5-1 0.7-1.7 0.7h-6.3c-0.7 0-1.2-0.2-1.7-0.7-0.5-0.4-0.7-1-0.7-1.7v-31.2c0-0.6 0.2-1.2 0.7-1.7 0.5-0.4 1-0.7 1.7-0.7h13.8q3.2 0 5.9 0.8 2.6 0.7 4.5 2.3 2 1.6 3 4zm-2 0.9q-0.8-1.9-2.3-3.2-1.6-1.3-3.8-1.9-2.4-0.7-5.3-0.7h-13.8c-0.1 0-0.1 0-0.1 0.1-0.1 0.1-0.1 0.1-0.1 0.1v31.2c0 0.1 0 0.1 0.1 0.2 0 0 0 0 0.1 0h6.3c0.1 0 0.1 0 0.2 0 0-0.1 0-0.1 0-0.2v-9.8c0-0.6 0.5-1.1 1.1-1.1h6.2q2.9 0 5.2-0.7 2.3-0.7 3.9-1.9 1.5-1.3 2.3-3.1 0.9-2 0.9-4.6 0-2.5-0.9-4.4z"/><g clip-path="url(#cp2)"><path class="a" d="m8.4 51.8h17.1c0.7 0 1.1-0.5 1.1-1.1q0-0.4-0.2-0.7c-0.2-0.2-0.5-0.4-0.9-0.4h-17.1c-3 0-5.5-2.4-5.5-5.5v-35.7c0-3.1 2.5-5.5 5.5-5.5h35.7c3.1 0 5.5 2.4 5.5 5.5v22.6q0 0.4 0.2 0.7c0.2 0.2 0.5 0.4 0.9 0.4 0.6 0 1.1-0.5 1.1-1.1v-22.6c0-4.3-3.4-7.7-7.7-7.7h-35.7c-4.3 0-7.7 3.4-7.7 7.7v35.7c0 4.3 3.4 7.7 7.7 7.7z"/></g></svg>