<svg xmlns="http://www.w3.org/2000/svg" xmlns:xlink="http://www.w3.org/1999/xlink" width="500" zoomAndPan="magnify" viewBox="0 0 375 374.999991" height="500" preserveAspectRatio="xMidYMid meet" version="1.0"><defs><clipPath id="ec4e03b203"><path d="M 58.804688 178.605469 L 329.550781 178.605469 L 329.550781 304.695312 L 58.804688 304.695312 Z M 58.804688 178.605469 " clip-rule="nonzero"/></clipPath></defs><path fill="#5698FB" d="M 103.527344 141.804688 C 112.371094 141.804688 119.566406 149.003906 119.566406 157.847656 C 119.566406 166.691406 112.371094 173.890625 103.527344 173.890625 C 94.683594 173.890625 87.488281 166.691406 87.488281 157.847656 C 87.488281 149.003906 94.683594 141.804688 103.527344 141.804688 Z M 103.527344 179.703125 C 115.578125 179.703125 125.382812 169.898438 125.382812 157.847656 C 125.382812 145.796875 115.578125 135.992188 103.527344 135.992188 C 91.476562 135.992188 81.675781 145.796875 81.675781 157.847656 C 81.675781 169.898438 91.476562 179.703125 103.527344 179.703125 " fill-opacity="1" fill-rule="nonzero"/><path fill="#5698FB" d="M 284.632812 141.804688 C 293.476562 141.804688 300.667969 149 300.667969 157.847656 C 300.667969 166.691406 293.476562 173.886719 284.632812 173.886719 C 275.789062 173.886719 268.59375 166.691406 268.59375 157.847656 C 268.59375 149 275.789062 141.804688 284.632812 141.804688 Z M 284.632812 179.703125 C 296.683594 179.703125 306.484375 169.898438 306.484375 157.847656 C 306.484375 145.792969 296.683594 135.992188 284.632812 135.992188 C 272.582031 135.992188 262.777344 145.792969 262.777344 157.847656 C 262.777344 169.898438 272.582031 179.703125 284.632812 179.703125 " fill-opacity="1" fill-rule="nonzero"/><g clip-path="url(#ec4e03b203)"><path fill="#5698FB" d="M 267.953125 215.703125 L 274.210938 213.753906 L 274.210938 238.484375 L 263.109375 238.484375 L 263.109375 228.832031 L 265.167969 228.832031 C 266.777344 228.832031 268.074219 227.53125 268.074219 225.925781 L 268.074219 216.542969 C 268.074219 216.253906 268.03125 215.96875 267.953125 215.703125 Z M 291.496094 254.65625 C 291.207031 254.65625 290.664062 254.648438 290.664062 254.648438 L 263.109375 254.699219 L 263.109375 244.300781 L 279.449219 244.300781 C 281.050781 244.300781 282.351562 242.996094 282.351562 241.390625 C 282.351562 239.984375 281.355469 238.808594 280.027344 238.542969 L 280.027344 211.9375 L 284.988281 210.394531 C 286.519531 209.914062 287.375 208.285156 286.898438 206.75 C 286.421875 205.21875 284.789062 204.363281 283.257812 204.839844 L 257.800781 212.78125 C 255.074219 213.628906 252.167969 212.105469 251.320312 209.378906 C 250.910156 208.0625 251.035156 206.660156 251.679688 205.4375 C 252.320312 204.214844 253.398438 203.3125 254.71875 202.902344 L 276.851562 196 C 277.769531 195.714844 278.441406 195.019531 278.734375 194.179688 C 278.945312 194 279.132812 193.785156 279.292969 193.542969 C 281.984375 189.375 286.550781 186.890625 291.5 186.890625 C 299.511719 186.890625 306.03125 193.410156 306.03125 201.421875 L 306.03125 239.996094 C 306.03125 248.007812 299.507812 254.65625 291.496094 254.65625 Z M 262.261719 223.015625 L 125.898438 223.015625 L 125.898438 219.449219 L 262.261719 219.449219 Z M 257.292969 298.820312 L 130.863281 298.820312 L 130.863281 228.894531 L 257.292969 228.894531 Z M 125.050781 238.484375 L 113.949219 238.484375 L 113.949219 213.753906 L 120.207031 215.703125 C 120.125 215.96875 120.082031 216.253906 120.082031 216.542969 L 120.082031 225.925781 C 120.082031 227.53125 121.382812 228.832031 122.988281 228.832031 L 125.050781 228.832031 Z M 125.050781 254.699219 L 97.496094 254.648438 C 97.496094 254.648438 96.953125 254.648438 96.664062 254.648438 C 88.652344 254.648438 82.128906 248.007812 82.128906 239.996094 L 82.128906 201.421875 C 82.128906 193.410156 88.648438 186.890625 96.65625 186.890625 C 101.609375 186.890625 106.175781 189.375 108.867188 193.542969 C 109.027344 193.785156 109.214844 194 109.425781 194.179688 C 109.71875 195.019531 110.390625 195.714844 111.304688 196 L 133.441406 202.902344 C 134.757812 203.3125 135.839844 204.214844 136.480469 205.4375 C 137.125 206.660156 137.25 208.0625 136.839844 209.378906 C 135.988281 212.105469 133.082031 213.628906 130.359375 212.78125 L 104.902344 204.839844 C 103.367188 204.363281 101.738281 205.21875 101.261719 206.75 C 100.785156 208.285156 101.640625 209.914062 103.171875 210.394531 L 108.132812 211.9375 L 108.132812 238.542969 C 106.804688 238.808594 105.804688 239.984375 105.804688 241.390625 C 105.804688 242.996094 107.105469 244.300781 108.710938 244.300781 L 125.050781 244.300781 Z M 171.105469 200.414062 C 171.105469 191.628906 178.25 184.480469 187.035156 184.480469 L 201.121094 184.480469 C 209.910156 184.480469 217.054688 191.628906 217.054688 200.414062 L 217.054688 213.636719 L 210.261719 213.636719 L 210.261719 204.136719 C 210.261719 202.53125 208.960938 201.226562 207.355469 201.226562 C 205.75 201.226562 204.449219 202.53125 204.449219 204.136719 L 204.449219 213.636719 L 184.535156 213.636719 L 184.535156 204.136719 C 184.535156 202.53125 183.234375 201.226562 181.628906 201.226562 C 180.023438 201.226562 178.722656 202.53125 178.722656 204.136719 L 178.722656 213.636719 L 171.105469 213.636719 Z M 329.507812 301.292969 L 321.90625 257.40625 L 325.796875 203.144531 C 325.910156 201.542969 324.707031 200.152344 323.105469 200.035156 C 321.503906 199.925781 320.113281 201.128906 319.996094 202.730469 L 316.273438 254.652344 L 305.589844 254.660156 C 309.441406 250.957031 311.84375 245.75 311.84375 239.996094 L 311.84375 201.421875 C 311.84375 190.203125 302.71875 181.074219 291.5 181.074219 C 284.570312 181.074219 278.179688 184.554688 274.410156 190.382812 C 274.335938 190.496094 274.273438 190.613281 274.21875 190.726562 L 252.988281 197.347656 C 250.1875 198.222656 247.890625 200.136719 246.527344 202.734375 C 245.164062 205.335938 244.894531 208.308594 245.769531 211.113281 C 246.050781 212.011719 246.4375 212.855469 246.921875 213.636719 L 222.871094 213.636719 L 222.871094 200.414062 C 222.871094 188.421875 213.113281 178.664062 201.121094 178.664062 L 187.035156 178.664062 C 175.042969 178.664062 165.289062 188.421875 165.289062 200.414062 L 165.289062 213.636719 L 141.234375 213.636719 C 141.714844 212.863281 142.105469 212.019531 142.390625 211.113281 C 143.261719 208.308594 142.992188 205.335938 141.628906 202.734375 C 140.265625 200.136719 137.972656 198.222656 135.171875 197.347656 L 113.941406 190.726562 C 113.886719 190.613281 113.824219 190.496094 113.75 190.382812 C 109.980469 184.554688 103.589844 181.074219 96.65625 181.074219 C 85.441406 181.074219 76.3125 190.203125 76.3125 201.421875 L 76.3125 239.996094 C 76.3125 246.023438 78.949219 251.445312 83.125 255.171875 L 71.652344 255.296875 L 68.359375 202.753906 C 68.257812 201.152344 66.878906 199.9375 65.277344 200.035156 C 63.671875 200.136719 62.457031 201.515625 62.554688 203.121094 L 66 258.09375 L 58.84375 301.3125 C 58.582031 302.898438 59.652344 304.394531 61.234375 304.65625 C 61.398438 304.683594 61.558594 304.695312 61.714844 304.695312 C 63.113281 304.695312 64.34375 303.6875 64.578125 302.261719 L 71.394531 261.117188 L 108.78125 260.636719 L 114.375 302.175781 C 114.570312 303.636719 115.820312 304.695312 117.25 304.695312 C 117.382812 304.695312 117.511719 304.6875 117.644531 304.667969 C 119.234375 304.457031 120.351562 302.992188 120.136719 301.402344 L 114.636719 260.554688 L 117.296875 260.519531 C 117.382812 260.515625 117.464844 260.511719 117.550781 260.5 L 125.050781 260.515625 L 125.050781 301.730469 C 125.050781 303.335938 126.351562 304.636719 127.957031 304.636719 L 260.203125 304.636719 C 261.808594 304.636719 263.109375 303.335938 263.109375 301.730469 L 263.109375 260.515625 L 270.601562 260.5 C 270.699219 260.511719 270.800781 260.519531 270.902344 260.519531 C 270.90625 260.519531 270.90625 260.519531 270.90625 260.519531 L 273.527344 260.515625 L 268.019531 301.339844 C 267.808594 302.929688 268.921875 304.394531 270.515625 304.609375 C 270.648438 304.628906 270.777344 304.636719 270.90625 304.636719 C 272.339844 304.636719 273.585938 303.574219 273.785156 302.117188 L 279.394531 260.507812 L 316.535156 260.464844 L 323.78125 302.285156 C 324.023438 303.699219 325.253906 304.695312 326.640625 304.695312 C 326.804688 304.695312 326.972656 304.683594 327.140625 304.652344 C 328.722656 304.378906 329.78125 302.875 329.507812 301.292969 " fill-opacity="1" fill-rule="nonzero"/></g><path fill="#5698FB" d="M 210.375 155.496094 C 210.375 164.484375 203.0625 171.792969 194.078125 171.792969 C 185.09375 171.792969 177.785156 164.484375 177.785156 155.496094 C 177.785156 146.511719 185.09375 139.199219 194.078125 139.199219 C 203.0625 139.199219 210.375 146.511719 210.375 155.496094 Z M 171.972656 155.496094 C 171.972656 167.6875 181.890625 177.609375 194.078125 177.609375 C 206.269531 177.609375 216.1875 167.6875 216.1875 155.496094 C 216.1875 143.304688 206.269531 133.386719 194.078125 133.386719 C 181.890625 133.386719 171.972656 143.304688 171.972656 155.496094 " fill-opacity="1" fill-rule="nonzero"/><path fill="#5698FB" d="M 130.230469 74.074219 L 188.585938 64.191406 C 189.5625 64.027344 190.515625 64.285156 191.277344 64.921875 C 192.03125 65.554688 192.453125 66.453125 192.460938 67.441406 L 192.742188 106.175781 C 192.753906 107.972656 191.304688 109.472656 189.507812 109.519531 L 160.007812 110.28125 C 159.496094 110.292969 159 110.4375 158.566406 110.703125 L 137.707031 123.449219 L 140.449219 114.625 C 140.726562 113.730469 140.554688 112.757812 139.988281 112.007812 C 139.441406 111.28125 138.582031 110.855469 137.671875 110.855469 C 137.648438 110.855469 137.621094 110.855469 137.597656 110.855469 L 132.824219 110.980469 C 131.035156 111.027344 129.542969 109.660156 129.425781 107.875 L 127.472656 77.558594 C 127.363281 75.855469 128.546875 74.359375 130.230469 74.074219 Z M 123.625 108.25 C 123.933594 113.085938 127.914062 116.796875 132.730469 116.796875 C 132.8125 116.796875 132.894531 116.796875 132.972656 116.792969 L 133.691406 116.773438 L 129.867188 129.089844 C 129.507812 130.246094 129.902344 131.503906 130.855469 132.246094 C 131.378906 132.652344 132.007812 132.859375 132.640625 132.859375 C 133.164062 132.859375 133.691406 132.71875 134.15625 132.433594 L 160.933594 116.074219 L 189.65625 115.332031 C 192.0625 115.269531 194.3125 114.285156 195.984375 112.554688 C 197.660156 110.824219 198.570312 108.542969 198.554688 106.132812 L 198.277344 67.398438 C 198.257812 64.71875 197.066406 62.191406 195.011719 60.464844 C 192.957031 58.742188 190.261719 58.011719 187.617188 58.457031 L 129.257812 68.339844 C 124.628906 69.125 121.367188 73.25 121.667969 77.933594 L 123.625 108.25 " fill-opacity="1" fill-rule="nonzero"/><path fill="#5698FB" d="M 206.867188 75.164062 L 256.527344 83.574219 C 258.210938 83.859375 259.398438 85.359375 259.289062 87.0625 L 257.332031 117.375 C 257.21875 119.164062 255.730469 120.523438 253.9375 120.480469 L 249.164062 120.359375 C 248.320312 120.335938 247.507812 120.683594 246.9375 121.308594 C 246.371094 121.933594 246.101562 122.773438 246.203125 123.613281 L 247.324219 132.972656 L 228.292969 120.269531 C 227.835938 119.964844 227.300781 119.792969 226.753906 119.78125 L 197.253906 119.019531 C 195.648438 118.980469 194.3125 120.246094 194.273438 121.851562 C 194.230469 123.457031 195.496094 124.792969 197.105469 124.835938 L 225.765625 125.574219 L 249.351562 141.316406 C 249.839844 141.644531 250.402344 141.808594 250.964844 141.808594 C 251.492188 141.808594 252.019531 141.664062 252.488281 141.375 C 253.453125 140.78125 253.988281 139.679688 253.851562 138.554688 L 252.375 126.257812 L 253.785156 126.296875 C 253.867188 126.296875 253.949219 126.296875 254.027344 126.296875 C 258.847656 126.296875 262.824219 122.585938 263.136719 117.75 L 265.089844 87.4375 C 265.394531 82.75 262.128906 78.625 257.5 77.84375 L 207.839844 69.433594 C 206.257812 69.164062 204.757812 70.230469 204.488281 71.8125 C 204.21875 73.398438 205.285156 74.898438 206.867188 75.164062 " fill-opacity="1" fill-rule="nonzero"/><path fill="#5698FB" d="M 143.570312 95.632812 C 146.03125 95.632812 148.035156 93.628906 148.035156 91.167969 C 148.035156 88.707031 146.03125 86.703125 143.570312 86.703125 C 141.109375 86.703125 139.105469 88.707031 139.105469 91.167969 C 139.105469 93.628906 141.109375 95.632812 143.570312 95.632812 " fill-opacity="1" fill-rule="nonzero"/><path fill="#5698FB" d="M 160.101562 94.074219 C 162.5625 94.074219 164.566406 92.070312 164.566406 89.609375 C 164.566406 87.148438 162.5625 85.144531 160.101562 85.144531 C 157.640625 85.144531 155.636719 87.148438 155.636719 89.609375 C 155.636719 92.070312 157.640625 94.074219 160.101562 94.074219 " fill-opacity="1" fill-rule="nonzero"/><path fill="#5698FB" d="M 177.667969 92.519531 C 180.128906 92.519531 182.132812 90.515625 182.132812 88.054688 C 182.132812 85.589844 180.128906 83.589844 177.667969 83.589844 C 175.207031 83.589844 173.203125 85.589844 173.203125 88.054688 C 173.203125 90.515625 175.207031 92.519531 177.667969 92.519531 " fill-opacity="1" fill-rule="nonzero"/></svg>