<svg xmlns="http://www.w3.org/2000/svg" xmlns:xlink="http://www.w3.org/1999/xlink" width="500" zoomAndPan="magnify" viewBox="0 0 375 374.999991" height="500" preserveAspectRatio="xMidYMid meet" version="1.0"><defs><clipPath id="5a8c3c13a7"><path d="M 141 241 L 239 241 L 239 302.773438 L 141 302.773438 Z M 141 241 " clip-rule="nonzero"/></clipPath><clipPath id="4cba8ccd61"><path d="M 165 72.523438 L 216 72.523438 L 216 123 L 165 123 Z M 165 72.523438 " clip-rule="nonzero"/></clipPath><clipPath id="961137a20c"><path d="M 43.160156 180 L 157 180 L 157 273 L 43.160156 273 Z M 43.160156 180 " clip-rule="nonzero"/></clipPath></defs><path fill="#5698FB" d="M 308.363281 188.347656 L 308.328125 188.347656 L 295.441406 188.367188 C 293.671875 188.382812 289.289062 190.515625 286.476562 193.601562 L 265.222656 216.84375 C 264.503906 217.640625 263.46875 218.078125 262.390625 218.078125 L 239.292969 218.078125 C 236.546875 218.078125 234.96875 218.957031 233.855469 220.175781 C 232.746094 221.371094 232.117188 223.082031 232.117188 224.847656 C 232.117188 226.605469 232.746094 228.335938 233.855469 229.53125 C 234.964844 230.746094 236.542969 231.613281 239.292969 231.613281 L 266.75 231.613281 C 268.84375 231.613281 270.570312 230.820312 271.464844 229.691406 L 279.164062 219.894531 C 281.183594 217.335938 285.261719 218.308594 285.914062 221.515625 L 294.335938 264.953125 L 328.496094 264.953125 L 315.132812 196.414062 C 314.640625 193.894531 313.691406 191.691406 312.550781 190.335938 C 311.40625 189.003906 310.28125 188.347656 308.363281 188.347656 Z M 308.328125 180.683594 C 312.457031 180.667969 316.046875 182.636719 318.367188 185.371094 C 320.703125 188.117188 321.992188 191.484375 322.660156 194.941406 L 336.878906 268.0625 C 337.355469 270.417969 335.542969 272.609375 333.152344 272.625 L 291.171875 272.625 C 289.347656 272.609375 287.78125 271.324219 287.429688 269.523438 L 280.007812 231.191406 L 276.859375 235.101562 C 274.175781 237.765625 270.550781 239.261719 266.773438 239.28125 L 239.296875 239.28125 C 234.707031 239.28125 230.785156 237.503906 228.234375 234.734375 C 225.667969 231.96875 224.476562 228.371094 224.476562 224.851562 C 224.476562 221.308594 225.667969 217.714844 228.234375 214.945312 C 230.785156 212.175781 234.707031 210.398438 239.296875 210.398438 L 260.722656 210.398438 L 280.855469 188.402344 C 284.792969 184.085938 289.875 180.71875 295.445312 180.703125 Z M 308.328125 180.683594 " fill-opacity="1" fill-rule="nonzero"/><g clip-path="url(#5a8c3c13a7)"><path fill="#5698FB" d="M 171.34375 248.972656 L 209.316406 248.972656 C 218 248.972656 225.4375 255.65625 228.230469 262.140625 C 231.378906 269.457031 231.625 277.351562 230.765625 281.863281 C 229.796875 287.078125 229.078125 289.089844 227.6875 291.132812 C 226.652344 292.648438 224.207031 294.394531 222.59375 294.960938 L 158.035156 294.960938 C 156.433594 294.394531 153.957031 292.648438 152.933594 291.132812 C 151.542969 289.105469 150.84375 287.082031 149.855469 281.863281 C 149.015625 277.351562 149.261719 269.457031 152.410156 262.140625 C 155.1875 255.671875 162.660156 248.972656 171.34375 248.972656 Z M 171.34375 241.308594 C 158.96875 241.308594 149.3125 249.945312 145.378906 259.09375 C 141.53125 268.042969 141.160156 277.050781 142.339844 283.292969 C 143.394531 288.839844 144.464844 292.351562 146.609375 295.488281 C 148.839844 298.785156 152.214844 301.335938 156.066406 302.484375 C 156.414062 302.570312 156.789062 302.625 157.140625 302.625 L 223.503906 302.625 C 223.855469 302.625 224.222656 302.570312 224.558594 302.484375 C 228.421875 301.335938 231.769531 298.765625 234.019531 295.488281 C 236.144531 292.351562 237.25 288.839844 238.289062 283.292969 C 239.46875 277.050781 239.101562 268.046875 235.265625 259.09375 C 231.328125 249.945312 221.710938 241.308594 209.316406 241.308594 Z M 171.34375 241.308594 " fill-opacity="1" fill-rule="nonzero"/></g><path fill="#5698FB" d="M 210.199219 198.308594 C 214.925781 209.308594 209.917969 221.992188 198.949219 226.734375 C 187.941406 231.496094 175.265625 226.46875 170.519531 215.457031 C 165.792969 204.4375 170.785156 191.785156 181.804688 187.027344 C 187.3125 184.648438 193.199219 184.699219 198.332031 186.75 C 203.464844 188.792969 207.804688 192.789062 210.199219 198.308594 Z M 178.796875 179.964844 C 163.976562 186.363281 157.125 203.679688 163.503906 218.507812 C 169.886719 233.347656 187.167969 240.183594 201.96875 233.785156 C 216.753906 227.40625 223.589844 210.070312 217.210938 195.261719 C 214.011719 187.863281 208.105469 182.429688 201.144531 179.664062 C 194.179688 176.878906 186.183594 176.773438 178.796875 179.964844 Z M 178.796875 179.964844 " fill-opacity="1" fill-rule="evenodd"/><path fill="#5698FB" d="M 270.394531 242.511719 C 269.988281 242.457031 269.582031 242.472656 269.195312 242.5625 C 267.121094 242.96875 265.78125 244.976562 266.171875 247.058594 L 269.636719 264.960938 L 245.9375 264.960938 C 243.828125 264.960938 242.121094 266.671875 242.109375 268.789062 C 242.109375 270.902344 243.824219 272.632812 245.9375 272.632812 L 274.296875 272.632812 C 276.703125 272.617188 278.496094 270.425781 278.039062 268.066406 L 273.695312 245.597656 C 273.398438 243.953125 272.0625 242.703125 270.394531 242.511719 Z M 270.394531 242.511719 " fill-opacity="1" fill-rule="nonzero"/><path fill="#5698FB" d="M 174.140625 135.9375 L 206.519531 135.9375 C 213.730469 135.9375 219.902344 141.308594 222.152344 146.347656 C 224.421875 151.425781 224.855469 156.871094 224.488281 160.519531 L 156.15625 160.519531 C 155.765625 156.871094 156.222656 151.425781 158.492188 146.347656 C 160.742188 141.328125 166.929688 135.9375 174.140625 135.9375 Z M 174.140625 128.273438 C 163.378906 128.273438 154.957031 135.441406 151.480469 143.214844 C 148.722656 149.382812 148.035156 155.570312 148.457031 160.523438 L 126.585938 160.523438 C 124.753906 160.523438 123.175781 161.828125 122.824219 163.640625 L 116.15625 197.992188 C 115.75 200.074219 117.105469 202.097656 119.199219 202.488281 C 121.273438 202.890625 123.277344 201.535156 123.679688 199.472656 L 129.730469 168.222656 L 250.875 168.222656 L 256.9375 199.472656 C 257.339844 201.550781 259.363281 202.910156 261.433594 202.488281 C 263.511719 202.082031 264.863281 200.074219 264.441406 197.992188 L 257.804688 163.640625 C 257.46875 161.828125 255.886719 160.523438 254.039062 160.523438 L 232.171875 160.523438 C 232.589844 155.570312 231.886719 149.382812 229.128906 143.214844 C 225.664062 135.460938 217.277344 128.273438 206.515625 128.273438 Z M 174.140625 128.273438 " fill-opacity="1" fill-rule="nonzero"/><g clip-path="url(#4cba8ccd61)"><path fill="#5698FB" d="M 190.207031 80.316406 C 196.820312 80.261719 203.164062 84.089844 205.976562 90.605469 C 209.71875 99.261719 205.765625 109.273438 197.117188 113.007812 C 188.417969 116.761719 178.484375 112.816406 174.742188 104.125 C 171.015625 95.4375 174.933594 85.460938 183.636719 81.707031 C 185.796875 80.773438 188.007812 80.335938 190.207031 80.316406 Z M 190.15625 72.644531 C 186.957031 72.664062 183.703125 73.320312 180.59375 74.675781 C 168.089844 80.050781 162.34375 94.65625 167.703125 107.136719 C 167.703125 107.152344 167.703125 107.152344 167.703125 107.175781 C 173.101562 119.667969 187.675781 125.449219 200.136719 120.058594 C 212.601562 114.667969 218.386719 100.054688 213.007812 87.574219 C 208.964844 78.21875 199.769531 72.578125 190.15625 72.644531 Z M 190.15625 72.644531 " fill-opacity="1" fill-rule="nonzero"/></g><path fill="#5698FB" d="M 105.839844 138.84375 C 110.335938 149.296875 105.578125 161.382812 95.148438 165.898438 C 84.671875 170.429688 72.628906 165.652344 68.109375 155.148438 C 63.609375 144.675781 68.355469 132.609375 78.851562 128.078125 C 84.074219 125.824219 89.695312 125.910156 94.566406 127.851562 C 99.457031 129.789062 103.570312 133.59375 105.839844 138.84375 Z M 75.808594 121.027344 C 61.535156 127.195312 54.945312 143.890625 61.078125 158.183594 C 67.234375 172.472656 83.898438 179.097656 98.15625 172.933594 C 112.414062 166.785156 119.027344 150.058594 112.871094 135.800781 C 109.777344 128.644531 104.082031 123.425781 97.363281 120.765625 C 90.648438 118.082031 82.933594 117.957031 75.808594 121.027344 Z M 75.808594 121.027344 " fill-opacity="1" fill-rule="evenodd"/><path fill="#5698FB" d="M 301.789062 128.078125 C 312.265625 132.605469 317.03125 144.675781 312.53125 155.148438 C 308.011719 165.648438 295.96875 170.425781 285.492188 165.894531 C 275.050781 161.382812 270.285156 149.296875 274.800781 138.839844 C 277.054688 133.589844 281.183594 129.785156 286.050781 127.847656 C 290.941406 125.90625 296.566406 125.824219 301.789062 128.078125 Z M 267.773438 135.796875 C 261.617188 150.054688 268.191406 166.78125 282.449219 172.929688 C 296.726562 179.097656 313.394531 172.46875 319.550781 158.179688 C 325.703125 143.886719 319.089844 127.191406 304.796875 121.023438 C 297.675781 117.957031 289.957031 118.082031 283.242188 120.765625 C 276.542969 123.421875 270.847656 128.640625 267.773438 135.796875 Z M 267.773438 135.796875 " fill-opacity="1" fill-rule="evenodd"/><g clip-path="url(#961137a20c)"><path fill="#5698FB" d="M 72.28125 188.347656 L 72.296875 188.347656 L 85.179688 188.367188 C 86.976562 188.382812 91.335938 190.515625 94.148438 193.601562 L 115.402344 216.84375 C 116.140625 217.640625 117.179688 218.078125 118.25 218.078125 L 141.351562 218.078125 C 144.09375 218.078125 145.65625 218.957031 146.78125 220.175781 C 147.890625 221.371094 148.523438 223.082031 148.523438 224.847656 C 148.523438 226.605469 147.890625 228.335938 146.78125 229.53125 C 145.65625 230.746094 144.09375 231.613281 141.351562 231.613281 L 113.886719 231.613281 C 111.796875 231.613281 110.058594 230.820312 109.175781 229.691406 L 101.476562 219.894531 C 99.457031 217.335938 95.359375 218.308594 94.726562 221.515625 L 86.304688 264.953125 L 52.152344 264.953125 L 65.492188 196.414062 C 65.988281 193.894531 66.9375 191.691406 68.09375 190.335938 C 69.234375 189.003906 70.363281 188.347656 72.28125 188.347656 Z M 72.296875 180.683594 C 68.164062 180.667969 64.578125 182.636719 62.261719 185.371094 C 59.9375 188.117188 58.65625 191.484375 57.96875 194.941406 L 43.746094 268.066406 C 43.292969 270.421875 45.082031 272.613281 47.492188 272.628906 L 89.46875 272.628906 C 91.285156 272.613281 92.847656 271.328125 93.199219 269.527344 L 100.636719 231.195312 L 103.765625 235.105469 C 106.457031 237.769531 110.082031 239.265625 113.855469 239.285156 L 141.355469 239.285156 C 145.921875 239.285156 149.859375 237.507812 152.414062 234.738281 C 154.960938 231.972656 156.175781 228.375 156.175781 224.851562 C 156.175781 221.308594 154.960938 217.71875 152.414062 214.949219 C 149.859375 212.175781 145.921875 210.402344 141.355469 210.402344 L 119.921875 210.402344 L 99.792969 188.40625 C 95.839844 184.089844 90.761719 180.722656 85.183594 180.703125 Z M 72.296875 180.683594 " fill-opacity="1" fill-rule="nonzero"/></g><path fill="#5698FB" d="M 111.410156 242.542969 C 109.34375 242.15625 107.332031 243.515625 106.929688 245.589844 L 102.570312 268.0625 C 102.113281 270.417969 103.921875 272.625 106.335938 272.625 L 134.6875 272.625 C 136.796875 272.609375 138.503906 270.898438 138.503906 268.78125 C 138.503906 266.667969 136.800781 264.953125 134.6875 264.953125 L 110.992188 264.953125 L 114.453125 247.050781 C 114.855469 244.960938 113.503906 242.949219 111.410156 242.542969 Z M 111.410156 242.542969 " fill-opacity="1" fill-rule="evenodd"/></svg>