<svg width="62" height="60" viewBox="0 0 62 60" fill="none" xmlns="http://www.w3.org/2000/svg">
<g clip-path="url(#clip0_73_806)">
<path d="M16.5174 49.4715C16.4272 49.3036 16.2976 49.1748 16.1286 49.0865C15.9596 48.9975 15.7612 48.9529 15.5328 48.9529C15.138 48.9529 14.8214 49.0838 14.5835 49.3454C14.3457 49.6071 14.2268 49.9564 14.2268 50.3934C14.2268 50.8593 14.3518 51.2228 14.6016 51.4845C14.8514 51.7461 15.1948 51.8769 15.6323 51.8769C15.9322 51.8769 16.1854 51.8001 16.3925 51.6463C16.5995 51.4926 16.7505 51.2721 16.8454 50.9834H15.297V50.0757H17.9509V51.2208C17.8607 51.5283 17.7071 51.8136 17.4906 52.0779C17.2742 52.3423 16.9997 52.556 16.667 52.7185C16.3337 52.8817 15.9583 52.9633 15.5394 52.9633C15.0445 52.9633 14.6036 52.8541 14.2162 52.6356C13.8287 52.4171 13.5261 52.1136 13.3104 51.7245C13.0939 51.3354 12.9857 50.8917 12.9857 50.392C12.9857 49.893 13.0939 49.4473 13.3104 49.0561C13.5268 48.665 13.8274 48.3602 14.2128 48.1417C14.5982 47.9232 15.0378 47.814 15.5328 47.814C16.1319 47.814 16.6376 47.9603 17.0491 48.2536C17.4606 48.5463 17.7324 48.9523 17.866 49.4708H16.5174V49.4715Z" fill="#010202"/>
<path d="M19.8493 48.8591V49.8821H21.4832V50.833H19.8493V51.9423H21.697V52.9289H18.6289V47.8726H21.697V48.8591H19.8493Z" fill="#010202"/>
<path d="M23.3162 52.7986C23.0263 52.6786 22.7945 52.5012 22.6208 52.2659C22.4471 52.0305 22.3556 51.7473 22.3463 51.4162H23.6448C23.6635 51.6037 23.7283 51.7466 23.8372 51.8444C23.9468 51.9428 24.089 51.9921 24.2654 51.9921C24.4464 51.9921 24.5887 51.9503 24.6936 51.866C24.7984 51.7824 24.8505 51.6657 24.8505 51.5167C24.8505 51.3919 24.8091 51.2887 24.7256 51.2071C24.6421 51.1255 24.5399 51.0581 24.419 51.0055C24.2974 50.9529 24.1251 50.8929 23.902 50.8254C23.5787 50.7243 23.3148 50.6238 23.1104 50.5227C22.906 50.4215 22.7297 50.2732 22.5827 50.0762C22.4351 49.8793 22.3616 49.6224 22.3616 49.3055C22.3616 48.8348 22.5306 48.4666 22.868 48.2002C23.2053 47.9338 23.6455 47.8003 24.1879 47.8003C24.7397 47.8003 25.1845 47.9338 25.5219 48.2002C25.8592 48.4666 26.0402 48.8374 26.0643 49.3129H24.7443C24.735 49.1497 24.6755 49.0209 24.566 48.9278C24.4564 48.8341 24.3161 48.7875 24.1451 48.7875C23.9975 48.7875 23.8786 48.8273 23.7884 48.9062C23.6983 48.9851 23.6528 49.0998 23.6528 49.2481C23.6528 49.4113 23.729 49.5388 23.8813 49.6298C24.0336 49.7209 24.2714 49.8193 24.5947 49.9252C24.918 50.0358 25.1805 50.141 25.3829 50.2421C25.5853 50.3433 25.7597 50.4896 25.9073 50.6811C26.0549 50.8733 26.1284 51.1208 26.1284 51.4229C26.1284 51.7109 26.0556 51.9725 25.9106 52.2079C25.7657 52.4432 25.5553 52.6307 25.2794 52.7696C25.0035 52.9092 24.6775 52.9787 24.3021 52.9787C23.9347 52.9787 23.6061 52.9186 23.3162 52.7986Z" fill="#010202"/>
<path d="M30.479 47.8726V48.8591H29.1517V52.9282H27.932V48.8591H26.6047V47.8726H30.479Z" fill="#010202"/>
<path d="M32.3126 47.8726V52.9289H31.0929V47.8726H32.3126Z" fill="#010202"/>
<path d="M34.2711 52.6474C33.879 52.4269 33.5671 52.118 33.3366 51.7221C33.1062 51.3263 32.9906 50.8806 32.9906 50.3863C32.9906 49.892 33.1062 49.4476 33.3366 49.0537C33.5671 48.6599 33.879 48.3524 34.2711 48.1319C34.6639 47.9114 35.0954 47.8008 35.5664 47.8008C36.0373 47.8008 36.4688 47.9114 36.8609 48.1319C37.253 48.3531 37.5623 48.6599 37.7881 49.0537C38.0139 49.4476 38.1268 49.892 38.1268 50.3863C38.1268 50.8806 38.0125 51.3263 37.7841 51.7221C37.5556 52.118 37.2464 52.4269 36.8569 52.6474C36.4668 52.8686 36.0366 52.9785 35.5657 52.9785C35.0948 52.9785 34.6632 52.8679 34.2711 52.6474ZM36.5256 51.4517C36.7654 51.1827 36.8856 50.8273 36.8856 50.3856C36.8856 49.9392 36.7654 49.5824 36.5256 49.3161C36.2851 49.0497 35.9658 48.9162 35.5664 48.9162C35.1622 48.9162 34.8396 49.0483 34.5998 49.312C34.3593 49.5764 34.2397 49.9338 34.2397 50.3849C34.2397 50.8313 34.36 51.1881 34.5998 51.4544C34.8396 51.7208 35.1622 51.8543 35.5664 51.8543C35.9652 51.855 36.2851 51.7208 36.5256 51.4517Z" fill="#010202"/>
<path d="M43.285 52.9282H42.0653L40.0246 49.8093V52.9282H38.8048V47.8726H40.0246L42.0653 51.0056V47.8726H43.285V52.9282Z" fill="#010202"/>
<path d="M47.2876 52.035H45.4186L45.1186 52.9279H43.8414L45.6537 47.8716H47.0665L48.8787 52.9279H47.5875L47.2876 52.035ZM46.9736 51.0842L46.3531 49.2331L45.7399 51.0842H46.9736Z" fill="#010202"/>
<path d="M20.7871 26.5529C20.7464 26.5523 20.707 26.5469 20.6656 26.5469C15.8133 26.5469 11.8795 30.5181 11.8795 35.4167C11.8795 40.3152 15.8133 44.2864 20.6656 44.2864C20.7063 44.2864 20.7464 44.281 20.7871 44.2804V26.5529Z" fill="#ED6C71"/>
<path d="M30.1463 44.2853V36.976C30.1463 36.5194 29.7796 36.1499 29.328 36.1499H22.083V36.1742L30.1463 44.2853Z" fill="#626BB0"/>
<path d="M26.1197 34.6706C28.3402 34.6706 30.1403 32.8534 30.1403 30.6117C30.1403 28.37 28.3402 26.5527 26.1197 26.5527C23.8992 26.5527 22.0991 28.37 22.0991 30.6117C22.0991 32.8534 23.8992 34.6706 26.1197 34.6706Z" fill="#A94157"/>
<path d="M30.0802 5.76904L21.0136 14.359L11.9463 5.76904H11.941V21.8962C11.941 22.8808 12.7312 23.6785 13.7065 23.6785H28.3201C29.2953 23.6785 30.0855 22.8808 30.0855 21.8962V5.76904H30.0802Z" fill="#FFE250"/>
<path d="M41.7499 23.5145C46.7588 23.5145 50.8192 19.4154 50.8192 14.3588C50.8192 9.30227 46.7588 5.20312 41.7499 5.20312C36.7411 5.20312 32.6807 9.30227 32.6807 14.3588C32.6807 19.4154 36.7411 23.5145 41.7499 23.5145Z" fill="#EF7A59"/>
<path d="M47.3911 26.7408V42.8073C47.3911 43.1195 46.9936 43.2469 46.8153 42.992L35.1288 26.2741H35.1108V44.5586H48.3891V26.7381C48.3891 26.4818 48.1833 26.2734 47.9288 26.2734H47.8533C47.5982 26.2741 47.3911 26.4832 47.3911 26.7408Z" fill="#4F2659"/>
</g>
<defs>
<clipPath id="clip0_73_806">
<rect width="62" height="60" fill="white"/>
</clipPath>
</defs>
</svg>
