<svg width="115" height="51" viewBox="0 0 115 51" fill="none" xmlns="http://www.w3.org/2000/svg">
<g id="AYUNTAMIENTO 1">
<path id="Vector" d="M25.4494 32.304C24.5362 31.0932 23.9046 29.7903 23.5803 28.342C23.1899 26.5984 23.32 24.8977 23.9665 23.2311C24.118 22.8418 24.2183 22.4332 24.3548 22.0395C24.4018 21.9026 24.3954 21.8235 24.2588 21.7486C24.0263 21.6245 23.8065 21.4812 23.5569 21.3314C21.9695 23.6312 20.3906 25.9203 18.7969 28.2286C17.6981 26.6476 16.6185 25.0924 15.5218 23.5157C15.0332 23.8687 14.566 24.2067 14.1008 24.5447C14.1072 24.5832 14.103 24.611 14.1158 24.6303C14.8711 25.6828 14.9116 26.8338 14.5724 28.0339C14.2139 29.3047 13.544 30.415 12.746 31.4462C12.2702 32.0601 11.739 32.6292 11.2333 33.2175C11.1949 33.2625 11.1565 33.3052 11.1053 33.3651C11.5085 33.7951 11.9033 34.2145 12.33 34.6701C14.1926 32.7512 15.7608 30.6888 16.4521 28.004C17.2415 29.1378 18.0117 30.2439 18.8054 31.3841C19.742 30.0278 20.6595 28.6971 21.6068 27.3258C21.7284 28.5153 21.9951 29.6106 22.4346 30.6653C22.8891 31.7542 23.4886 32.7554 24.2311 33.6668C24.357 33.8208 24.3762 33.9278 24.2738 34.1075C23.67 35.1814 23.2496 36.3196 23.1003 37.5518C22.8976 39.2141 23.2475 40.7629 24.0433 42.2198C24.1479 42.4145 24.2631 42.6028 24.4082 42.8531C23.8022 43.037 23.2283 43.251 22.6373 43.3836C20.2114 43.9227 17.7877 43.912 15.4151 43.1355C12.3406 42.1278 10.3521 39.9885 9.24908 36.9785C8.92264 36.0885 8.77329 35.1793 8.77756 34.2187C8.7989 29.0501 8.79036 23.8815 8.78183 18.7129C8.78183 18.4882 8.84797 18.392 9.05706 18.3107C11.2077 17.4721 13.4309 16.9479 15.7245 16.7233C20.5123 16.2505 25.1805 16.8388 29.7507 18.3107C29.9832 18.3856 30.0451 18.4904 30.043 18.7257C30.0344 21.7293 30.0366 24.7329 30.043 27.7366C30.043 27.9398 29.9768 28.0575 29.8125 28.1751C28.2465 29.3026 26.8298 30.5947 25.62 32.1051C25.5688 32.1628 25.5198 32.2185 25.4494 32.304ZM18.3445 5.45117C19.0444 5.45117 19.7058 5.45117 20.3949 5.45117C20.3949 6.80751 20.3949 8.15315 20.3949 9.48381C21.562 9.62928 22.6992 9.76834 23.8641 9.91381C24.1905 8.80992 24.5255 7.68249 24.869 6.52298C25.396 6.769 25.9081 7.0086 26.4393 7.25677C26.1342 8.28792 25.8334 9.30838 25.5304 10.3331C26.5311 10.7032 27.5253 11.0733 28.5452 11.452C28.9036 10.8016 29.2749 10.132 29.6568 9.43674C29.8488 9.60361 30.0344 9.75336 30.2008 9.91809C30.2414 9.95874 30.2563 10.0785 30.2286 10.1299C29.7464 11.0134 29.2535 11.8927 28.7649 12.772C22.5114 9.94162 16.275 9.95232 10.015 12.7784C9.98303 12.7334 9.94036 12.6842 9.90836 12.6286C9.45817 11.8242 9.01652 11.0134 8.55567 10.2155C8.45539 10.0422 8.48099 9.9459 8.62821 9.83466C8.78183 9.71699 8.92478 9.58008 9.09333 9.43246C9.46671 10.1106 9.83155 10.7717 10.1943 11.4285C11.2034 11.0626 12.1998 10.7032 13.2218 10.3331C12.9252 9.3255 12.6244 8.30718 12.315 7.25891C12.8314 7.01502 13.3456 6.77542 13.8854 6.52084C14.2267 7.6718 14.5638 8.80564 14.8945 9.92451C16.0445 9.77903 17.1753 9.6357 18.3467 9.48595C18.3445 8.16812 18.3445 6.81606 18.3445 5.45117ZM25.0589 34.6765C24.5959 35.6221 24.3058 36.6191 24.3164 37.678C24.3335 39.2269 24.9714 40.4977 26.1172 41.5267C26.2708 41.6636 26.3689 41.685 26.5439 41.5438C27.8731 40.4634 28.8354 39.1178 29.4648 37.5304C29.7464 36.8159 30.0259 36.0906 30.0302 35.3098C30.043 33.2325 30.0344 31.1531 30.0344 29.0758C30.0344 28.9881 30.0259 28.9004 30.0174 28.7592C28.511 30.062 27.1498 31.4162 25.9977 33.0592C26.7082 33.7181 27.4123 34.3685 28.1334 35.036C27.792 35.4852 27.4379 35.9494 27.0538 36.4522C26.3775 35.8468 25.7289 35.2691 25.0589 34.6765ZM28.2059 13.9593C22.2959 11.0498 16.4414 11.0455 10.5314 13.9422C10.7725 14.2374 10.9794 14.4749 11.1672 14.7273C11.2568 14.8471 11.3379 14.8514 11.468 14.8022C13.0682 14.1946 14.7174 13.7881 16.4136 13.5678C18.3275 13.3196 20.2392 13.3196 22.1508 13.555C23.9238 13.7732 25.6563 14.1604 27.3269 14.8086C27.3845 14.8321 27.4997 14.8107 27.5381 14.7658C27.76 14.5176 27.9648 14.2566 28.2059 13.9593ZM41.08 20.5655C41.0864 20.0414 41.1397 19.5472 40.9562 19.0701C40.7493 18.5374 40.3759 18.178 39.8105 18.0818C39.5054 18.0304 39.1768 18.0133 38.8738 18.0647C38.11 18.1909 37.6257 18.7343 37.5318 19.5087C37.5084 19.7034 37.4977 19.9002 37.4956 20.097C37.4934 21.817 37.4934 23.5371 37.4934 25.2571C37.4934 25.3683 37.4934 25.4774 37.4934 25.6101C37.1136 25.6101 36.7531 25.6101 36.3605 25.6101C36.3605 25.5052 36.3605 25.4068 36.3605 25.3063C36.3605 23.4493 36.3605 21.5924 36.3605 19.7355C36.3605 18.1288 37.3675 17.0592 38.9699 16.9672C39.6505 16.9287 40.3226 16.9843 40.9328 17.3223C41.8459 17.8315 42.2236 18.6701 42.2364 19.667C42.2598 21.601 42.2406 23.5349 42.2385 25.4689C42.2385 25.5095 42.2321 25.5523 42.2278 25.6122C41.8587 25.6122 41.496 25.6122 41.0992 25.6122C41.0992 24.3286 41.0992 23.0429 41.0992 21.7336C40.0281 21.7336 38.9912 21.7336 37.9159 21.7336C37.9159 21.3721 37.9073 21.0319 37.9265 20.6939C37.9287 20.649 38.0716 20.5762 38.1484 20.5762C39.0104 20.5677 39.8724 20.5698 40.7343 20.5698C40.8367 20.5655 40.9392 20.5655 41.08 20.5655ZM77.4234 25.625C77.1097 25.625 76.8302 25.625 76.5059 25.625C76.5059 25.5245 76.5059 25.4261 76.5059 25.3277C76.5059 24.2409 76.5123 23.1541 76.5017 22.0695C76.4995 21.8342 76.4654 21.5903 76.3971 21.3635C76.2542 20.88 75.8808 20.6105 75.3943 20.5955C74.8802 20.5805 74.4918 20.8158 74.3169 21.2929C74.2422 21.4961 74.2017 21.725 74.1974 21.9411C74.1825 23.0707 74.1846 24.1981 74.1803 25.3277C74.1803 25.4197 74.1803 25.5117 74.1803 25.6336C73.8539 25.6336 73.5573 25.6443 73.2629 25.6208C73.2181 25.6165 73.1498 25.4582 73.1498 25.3705C73.1413 24.1468 73.1456 22.9231 73.1456 21.7015C73.1456 21.6416 73.1434 21.5817 73.1498 21.5218C73.2501 20.5142 73.9094 19.821 74.9122 19.6863C75.1639 19.652 75.4221 19.6371 75.676 19.652C76.2008 19.6863 76.6489 19.8831 76.9604 20.3773C77.2335 19.9794 77.5855 19.7462 78.0379 19.6777C78.6161 19.59 79.1815 19.6435 79.7106 19.9002C80.4168 20.2446 80.7646 20.8458 80.7816 21.6095C80.8094 22.9017 80.788 24.1917 80.788 25.4838C80.788 25.5245 80.7752 25.5651 80.7646 25.6208C80.436 25.6208 80.116 25.6208 79.7426 25.6208C79.7426 25.3191 79.7426 25.0239 79.7426 24.7265C79.7426 23.7938 79.749 22.861 79.7383 21.9304C79.7362 21.7293 79.6978 21.5197 79.6316 21.3293C79.4631 20.8351 79.0748 20.5826 78.5542 20.5933C78.0549 20.604 77.6773 20.8757 77.5322 21.3721C77.4682 21.5903 77.4341 21.8256 77.4319 22.0524C77.4213 23.1391 77.4277 24.2259 77.4277 25.3106C77.4234 25.4047 77.4234 25.4988 77.4234 25.625ZM89.2392 21.2694C88.7612 20.6639 87.8801 20.5334 87.0757 20.9271C86.282 21.3143 85.9342 22.2021 86.1775 23.2119C86.3994 24.1318 87.1504 24.6431 88.2257 24.6089C89.237 24.5768 89.7149 24.089 89.9539 22.8289C90.2846 22.8546 90.6196 22.8803 90.9695 22.906C90.9738 23.659 90.7476 24.2922 90.227 24.8035C89.2989 25.717 87.2379 26.0465 86.0153 24.8848C85.2686 24.1767 85.0189 23.2975 85.1171 22.2984C85.2707 20.7367 86.3268 19.7012 87.8865 19.6413C89.0023 19.5986 89.8664 20.1248 90.5321 20.9955C90.6601 21.1645 90.7668 21.3485 90.8948 21.5453C89.5443 22.2749 88.2193 22.9915 86.8773 23.7189C86.7237 23.4408 86.5764 23.1755 86.4143 22.8824C87.3637 22.339 88.2982 21.8063 89.2392 21.2694ZM72.0404 25.6101C71.6264 25.6101 71.2488 25.6101 70.8392 25.6101C70.8392 25.3405 70.837 25.0859 70.8392 24.8314C70.8456 23.89 70.852 22.9509 70.8626 22.0096C70.8669 21.6844 70.7239 21.432 70.4935 21.2244C69.8342 20.634 68.8144 20.5099 68.0292 20.9164C67.2974 21.2972 66.9539 22.0502 67.0777 23.0044C67.1758 23.7574 67.7476 24.3628 68.5242 24.5511C69.1856 24.7116 69.7532 24.5318 70.2503 24.0847C70.3122 24.0291 70.374 23.9692 70.4871 23.8622C70.4871 24.3179 70.4978 24.7201 70.4764 25.1202C70.4722 25.1886 70.342 25.2656 70.2588 25.3148C68.8016 26.1577 66.7299 25.379 66.2178 23.7767C65.8188 22.5316 65.9725 21.3656 66.9027 20.3965C67.5577 19.7162 68.4239 19.605 69.3179 19.6499C69.9665 19.682 70.5853 19.8296 71.1101 20.2404C71.7097 20.711 72.0318 21.3314 72.0382 22.0973C72.0468 23.1755 72.0404 24.2537 72.0404 25.332C72.0404 25.4175 72.0404 25.501 72.0404 25.6101ZM46.2902 28.0232C45.9232 28.0232 45.5925 28.0232 45.2298 28.0232C45.2298 27.2274 45.2298 26.438 45.2298 25.6486C45.1188 25.6186 45.0378 25.5972 44.9546 25.5758C44.0051 25.3469 43.38 24.6645 43.333 23.6783C43.2797 22.5958 43.301 21.5068 43.2904 20.4222C43.2882 20.1847 43.2904 19.9451 43.2904 19.6841C43.6445 19.6841 43.9795 19.6841 44.3379 19.6841C44.3379 19.7847 44.3379 19.8767 44.3379 19.9687C44.3379 21.0469 44.3358 22.1251 44.3379 23.2012C44.3422 24.3971 45.2746 24.8185 46.1984 24.5554C46.7574 24.3949 47.0753 23.9136 47.0775 23.2568C47.0817 22.1615 47.0796 21.0661 47.0796 19.9729C47.0796 19.8809 47.0796 19.789 47.0796 19.6777C47.4359 19.6777 47.7645 19.6777 48.108 19.6777C48.1165 19.7355 48.1315 19.7911 48.1315 19.8489C48.1315 21.0212 48.1421 22.1936 48.1229 23.3638C48.1037 24.5939 47.4551 25.364 46.4502 25.5758C46.3094 25.6058 46.2859 25.6871 46.288 25.8133C46.2923 26.4465 46.2902 27.0798 46.2902 27.713C46.2902 27.8114 46.2902 27.9034 46.2902 28.0232ZM108.256 22.645C108.247 24.3158 106.901 25.6315 105.215 25.6208C103.555 25.6101 102.243 24.2708 102.252 22.5958C102.26 20.9613 103.615 19.6306 105.264 19.6413C106.931 19.652 108.264 20.9891 108.256 22.645ZM103.276 22.6278C103.274 23.7082 104.159 24.5939 105.245 24.6024C106.316 24.611 107.227 23.7103 107.23 22.6385C107.232 21.556 106.353 20.6811 105.256 20.6789C104.155 20.6789 103.278 21.5411 103.276 22.6278ZM60.8497 25.6122C60.5084 25.6122 60.1777 25.6122 59.8192 25.6122C59.8192 25.5074 59.8192 25.4154 59.8192 25.3255C59.8192 24.2559 59.8213 23.1862 59.8192 22.1165C59.8171 20.957 58.7332 20.2938 57.7006 20.8265C57.197 21.0854 57.0114 21.5432 57.0071 22.0802C56.9986 23.1498 57.005 24.2195 57.005 25.2892C57.005 25.3897 57.005 25.4903 57.005 25.6079C56.6423 25.6079 56.3052 25.6079 55.9532 25.6079C55.9489 25.5138 55.9404 25.4304 55.9404 25.3469C55.9404 24.2259 55.9276 23.1049 55.9446 21.9839C55.9596 21.0362 56.2924 20.2468 57.229 19.8702C58.0377 19.5451 58.8698 19.5515 59.6699 19.8981C60.455 20.2361 60.8369 20.9078 60.8647 21.7272C60.9073 23.0001 60.8775 24.2773 60.8753 25.5523C60.8753 25.5673 60.8625 25.5823 60.8497 25.6122ZM97.1206 25.6101C96.7622 25.6101 96.4336 25.6101 96.0709 25.6101C96.0666 25.5138 96.0559 25.4154 96.0559 25.317C96.0538 24.3072 96.0581 23.2975 96.0538 22.2877C96.0538 22.093 96.041 21.8919 96.0005 21.7015C95.8447 20.9806 95.2964 20.6254 94.4579 20.6832C93.773 20.7303 93.2673 21.2031 93.2482 21.9069C93.2183 23.0343 93.2332 24.1639 93.2311 25.2934C93.2311 25.394 93.2311 25.4945 93.2311 25.6101C92.8726 25.6101 92.5441 25.6101 92.1984 25.6101C92.1878 25.5651 92.1686 25.5181 92.1686 25.471C92.1707 24.2473 92.1494 23.0236 92.1835 21.8021C92.2176 20.5677 93.0391 19.7504 94.268 19.6734C94.8057 19.6392 95.3412 19.6456 95.849 19.8745C96.6277 20.2254 97.0395 20.8501 97.0779 21.678C97.1291 22.8225 97.1099 23.9692 97.1206 25.1137C97.1227 25.2742 97.1206 25.4346 97.1206 25.6101ZM49.6356 19.6756C49.9514 19.6756 50.2757 19.6756 50.6363 19.6756C50.6363 19.7718 50.6363 19.8638 50.6363 19.9537C50.6363 21.0319 50.632 22.1101 50.6384 23.1883C50.6427 23.905 50.9883 24.3971 51.5751 24.5554C52.6077 24.8356 53.3907 24.2302 53.3993 23.1327C53.4057 22.0887 53.4014 21.0447 53.4014 20.0007C53.4014 19.9002 53.4014 19.7997 53.4014 19.682C53.7513 19.682 54.0713 19.682 54.4319 19.682C54.4319 19.774 54.4319 19.8638 54.4319 19.9537C54.4319 21.049 54.449 22.1444 54.4234 23.2397C54.4148 23.6077 54.3508 23.9927 54.225 24.3393C53.9284 25.148 53.267 25.5117 52.452 25.6101C51.942 25.67 51.43 25.6486 50.9392 25.456C50.1733 25.1565 49.6954 24.5704 49.6548 23.7788C49.5866 22.4246 49.6356 21.064 49.6356 19.6756ZM65.5116 24.6046C65.5116 24.9533 65.5116 25.2742 65.5116 25.655C64.8374 25.6229 64.1696 25.6507 63.521 25.548C62.8062 25.4346 62.3795 24.8035 62.2899 23.9157C62.2771 23.7959 62.2771 23.6761 62.2771 23.5563C62.2771 21.9411 62.2771 20.3238 62.2771 18.7086C62.2771 18.6145 62.2771 18.5225 62.2771 18.4048C62.6483 18.4048 63.0068 18.4048 63.4058 18.4048C63.4058 18.7728 63.4186 19.1386 63.4015 19.5023C63.3887 19.744 63.457 19.8317 63.7109 19.8232C64.2464 19.8039 64.7841 19.8168 65.3217 19.8168C65.4135 19.8168 65.5052 19.8168 65.614 19.8168C65.614 20.1676 65.614 20.4885 65.614 20.8372C64.8865 20.8372 64.1674 20.8372 63.4228 20.8372C63.4164 20.9549 63.4079 21.0447 63.4079 21.1367C63.4079 21.9839 63.4058 22.8289 63.41 23.6761C63.41 23.828 63.425 23.9842 63.4612 24.1318C63.5402 24.4484 63.745 24.6003 64.0736 24.6024C64.5451 24.6067 65.0209 24.6046 65.5116 24.6046ZM101.727 25.6143C101.14 25.6143 100.566 25.6571 100.001 25.6037C99.1539 25.5266 98.5757 24.8848 98.5309 23.9992C98.4968 23.3424 98.5138 22.6835 98.5138 22.0246C98.5117 20.9207 98.5138 19.8189 98.5138 18.715C98.5138 18.6145 98.5138 18.5139 98.5138 18.3963C98.8979 18.3963 99.2521 18.3963 99.634 18.3963C99.634 18.8583 99.634 19.3162 99.634 19.8103C100.379 19.8103 101.098 19.8103 101.829 19.8103C101.829 20.1676 101.829 20.4885 101.829 20.8329C101.11 20.8329 100.398 20.8329 99.6404 20.8329C99.6404 20.9356 99.6404 21.0148 99.6404 21.0961C99.6404 21.9946 99.6382 22.891 99.6404 23.7895C99.6425 24.38 99.8665 24.6024 100.46 24.6024C100.876 24.6024 101.292 24.6024 101.727 24.6024C101.727 24.9447 101.727 25.2656 101.727 25.6143ZM83.5126 19.8339C83.5126 21.7721 83.5126 23.6825 83.5126 25.6101C83.1777 25.6101 82.8555 25.6101 82.5162 25.6101C82.5162 23.6868 82.5162 21.77 82.5162 19.8339C82.8448 19.8339 83.1649 19.8339 83.5126 19.8339ZM82.992 19.4638C82.6763 19.4616 82.4458 19.2306 82.4458 18.9182C82.4458 18.5952 82.6933 18.3513 83.0112 18.3577C83.3099 18.3642 83.5553 18.623 83.551 18.9225C83.5446 19.2327 83.3035 19.4659 82.992 19.4638Z" fill="#2B3D8B"/>
<path id="Vector_2" d="M58.4622 39.2587C58.6863 38.5356 58.8911 37.8767 59.0916 37.2156C59.7872 34.9287 60.4806 32.6418 61.1783 30.357C61.2615 30.0874 61.3554 29.82 61.477 29.5675C61.829 28.8402 62.3859 28.5599 63.2436 28.6541C63.8943 28.7247 64.4192 29.1825 64.56 29.9056C64.703 30.6436 64.7776 31.3924 64.8758 32.139C65.1403 34.1821 65.4028 36.2251 65.6673 38.2682C65.8295 39.5133 65.9916 40.7605 66.1538 42.0056C66.1666 42.0976 66.1687 42.1917 66.1751 42.3008C65.5116 42.3008 64.8587 42.3008 64.1845 42.3008C63.7791 38.6618 63.3737 35.0314 62.9684 31.401C62.9513 31.3988 62.9342 31.3945 62.9193 31.3924C62.8915 31.4651 62.8595 31.5379 62.8361 31.6127C61.7928 34.9373 60.743 38.2575 59.7125 41.5863C59.5333 42.1639 59.1493 42.4484 58.4814 42.4527C57.9118 42.457 57.4061 42.2281 57.2013 41.5692C56.1729 38.2318 55.1168 34.903 54.0713 31.57C54.0543 31.5143 54.0308 31.4587 53.9476 31.401C53.5422 35.025 53.139 38.6469 52.7314 42.2923C52.0764 42.2923 51.4257 42.2923 50.7344 42.2923C50.7771 41.9286 50.8176 41.5692 50.8624 41.2098C51.2699 38.0478 51.6796 34.8859 52.0892 31.724C52.1554 31.2063 52.2108 30.6886 52.2919 30.173C52.3922 29.5333 52.6504 28.9771 53.3011 28.7396C53.9028 28.5193 54.5151 28.5364 55.0058 28.9921C55.2469 29.2146 55.4475 29.529 55.552 29.8392C55.9211 30.9303 56.239 32.0385 56.5783 33.1402C57.1778 35.0999 57.7795 37.0573 58.3812 39.017C58.3961 39.0769 58.4174 39.1325 58.4622 39.2587ZM79.3607 46.0254C79.5634 45.3793 79.7554 44.7718 79.9517 44.1492C81.0057 44.5963 82.1151 44.6241 83.2182 44.6006C84.8418 44.5664 85.8083 43.5502 85.8019 41.9243C85.7955 40.1294 85.7763 38.3324 85.7678 36.5375C85.7657 36.0519 85.5672 35.6646 85.2173 35.3416C83.7857 34.0238 81.4302 34.1329 80.2866 35.609C79.5015 36.6231 79.4823 38.3388 80.2376 39.4192C80.948 40.4332 82.4458 40.9466 83.6044 40.568C84.2039 40.3712 84.6861 39.9989 85.1491 39.5111C85.1597 39.6138 85.1725 39.6823 85.1725 39.7508C85.1747 40.2899 85.164 40.829 85.1789 41.3681C85.1832 41.5585 85.1085 41.6633 84.957 41.7574C84.4706 42.0634 83.9415 42.2452 83.3761 42.303C82.5888 42.3843 81.8079 42.3222 81.0483 42.0869C79.7148 41.6719 78.8315 40.7798 78.3664 39.4748C77.8885 38.1334 77.9098 36.7899 78.4368 35.4657C78.951 34.1757 79.8706 33.3114 81.2211 32.9691C82.6122 32.614 84.0055 32.646 85.3304 33.2344C86.8431 33.9061 87.6411 35.1063 87.6582 36.7792C87.6752 38.5335 87.6667 40.2856 87.6603 42.0398C87.6582 42.825 87.5237 43.5887 87.176 44.3011C86.6063 45.467 85.6206 46.0896 84.398 46.3549C82.704 46.7185 81.0441 46.4725 79.3607 46.0254ZM98.5608 42.303C97.9164 42.303 97.3126 42.303 96.6768 42.303C96.6725 42.1896 96.6619 42.0826 96.6619 41.9778C96.6661 40.2064 96.6576 38.4372 96.6832 36.6658C96.6917 36.1032 96.4826 35.6775 96.0815 35.3138C94.9678 34.3019 93.1031 34.1778 91.8762 35.0421C90.9417 35.701 90.5961 36.6487 90.6644 37.7441C90.7817 39.5839 92.0939 40.7477 93.9266 40.6728C94.6712 40.6429 95.2686 40.2706 95.802 39.7786C95.8938 39.6951 95.9749 39.5989 96.1093 39.4555C96.1093 40.1829 96.1135 40.8375 96.1007 41.49C96.0986 41.5585 96.0069 41.6441 95.9343 41.6911C95.2452 42.1554 94.4728 42.3286 93.6535 42.3094C92.463 42.2816 91.3535 42.0142 90.4468 41.1798C89.6445 40.4418 89.2477 39.4919 89.0791 38.4351C88.8743 37.1557 89.0941 35.947 89.7405 34.8282C90.2291 33.981 90.9545 33.3905 91.8848 33.0996C93.3591 32.6396 94.8419 32.6567 96.2608 33.2814C97.7564 33.9425 98.5416 35.1319 98.5544 36.7899C98.5672 38.5185 98.5565 40.2471 98.5565 41.9735C98.5608 42.0762 98.5608 42.1789 98.5608 42.303ZM71.7758 32.7616C74.4641 32.7616 76.5934 34.8881 76.5934 37.5708C76.5934 40.1936 74.4257 42.3222 71.763 42.3179C69.0811 42.3137 66.9603 40.1808 66.9646 37.4916C66.9646 34.8774 69.1173 32.7616 71.7758 32.7616ZM74.9292 37.5494C74.9377 35.8272 73.5146 34.4088 71.78 34.4046C70.0796 34.4024 68.6352 35.8016 68.6224 37.4638C68.6117 39.2288 70.0006 40.6621 71.7331 40.6685C73.4976 40.6749 74.9207 39.2865 74.9292 37.5494ZM108.446 42.2923C107.872 42.2923 107.321 42.2923 106.739 42.2923C106.739 42.1789 106.739 42.0783 106.739 41.9778C106.739 40.2064 106.743 38.4351 106.737 36.6637C106.735 35.9021 106.513 35.2325 105.866 34.7618C105.098 34.2056 103.276 34.1564 102.604 35.3288C102.363 35.7481 102.26 36.1995 102.258 36.6787C102.258 38.45 102.258 40.2214 102.258 41.9928C102.258 42.0848 102.258 42.1789 102.258 42.2901C101.682 42.2901 101.123 42.2901 100.539 42.2901C100.534 42.1981 100.528 42.1083 100.528 42.0184C100.528 40.2043 100.524 38.3901 100.53 36.576C100.532 35.8871 100.641 35.2132 100.955 34.5885C101.42 33.6601 102.192 33.1274 103.171 32.8792C104.001 32.6674 104.846 32.6632 105.683 32.845C107.364 33.2087 108.407 34.4367 108.446 36.1952C108.488 38.1869 108.461 40.1829 108.463 42.1768C108.463 42.2046 108.454 42.2388 108.446 42.2923ZM97.7308 29.2552C97.2955 29.713 96.9158 30.1109 96.5339 30.5089C96.1029 30.9581 95.674 31.4095 95.2388 31.8523C95.1726 31.9187 95.0724 31.9871 94.987 31.9893C94.5795 32.0042 94.1698 31.9957 93.7218 31.9957C93.7687 31.908 93.7986 31.8438 93.837 31.7882C94.3683 31.0052 94.9059 30.2265 95.4329 29.4392C95.5247 29.3023 95.6228 29.2488 95.7871 29.2509C96.4058 29.2616 97.0267 29.2552 97.7308 29.2552Z" fill="black"/>
<path id="Vector_3" d="M39.9982 38.7283C39.4243 38.1164 38.8098 37.9367 38.0887 38.2106C37.3931 38.4758 36.9899 39.1882 37.0902 39.9648C37.1926 40.7564 37.7132 41.2912 38.4706 41.396C39.0445 41.473 39.5523 41.3318 39.994 40.9575C40.2052 40.7778 40.3119 40.5553 40.3119 40.2643C40.314 38.6235 40.3268 36.9805 40.3375 35.3396C40.3375 35.2647 40.3439 35.1877 40.3481 35.0957C40.6703 35.0957 40.9818 35.0957 41.3232 35.0957C41.3232 35.1898 41.3232 35.2797 41.3232 35.3717C41.3232 36.9291 41.2933 38.4865 41.3339 40.0418C41.3616 41.0815 40.6917 41.995 39.595 42.2218C38.9656 42.3523 38.3383 42.363 37.7281 42.1469C36.8405 41.8324 36.3861 41.15 36.2474 40.2536C36.0981 39.2866 36.2709 38.3817 37.0646 37.7463C37.8689 37.1045 38.7928 37.0468 39.7422 37.434C39.9257 37.5089 40.0217 37.6222 40.0025 37.8426C39.979 38.11 39.9982 38.3839 39.9982 38.7283ZM46.2219 39.9177C46.5206 39.9391 46.8044 39.9605 47.1031 39.9819C47.1052 40.5275 46.9601 40.9938 46.6443 41.411C45.8528 42.4571 43.4077 42.8978 42.39 41.043C41.4512 39.3316 42.5905 37.2735 44.5214 37.1965C45.4901 37.158 46.5569 37.8554 47.0135 38.8459C45.8891 39.4557 44.7625 40.0654 43.6125 40.6879C43.476 40.444 43.3501 40.2173 43.2093 39.967C44.0072 39.5113 44.7988 39.062 45.5882 38.6106C45.3429 38.1656 44.6324 37.9966 43.9859 38.2255C43.2285 38.493 42.8359 39.2075 42.9831 40.0504C43.1367 40.9275 43.7427 41.4431 44.611 41.441C45.5904 41.4345 46.0448 41.0152 46.2219 39.9177Z" fill="black"/>
</g>
</svg>
