<!-- <svg xmlns="http://www.w3.org/2000/svg" xmlns:xlink="http://www.w3.org/1999/xlink" width="600" zoomAndPan="magnify" viewBox="0 0 450 449.999984" height="600" preserveAspectRatio="xMidYMid meet" version="1.0"><defs><clipPath id="03e26e8611"><path d="M 90 88.8125 L 311 88.8125 L 311 361.0625 L 90 361.0625 Z M 90 88.8125 " clip-rule="nonzero"/></clipPath></defs><rect x="-45" width="540" fill="#ffffff" y="-44.999998" height="539.99998" fill-opacity="1"/><rect x="-45" width="540" fill="#ffffff" y="-44.999998" height="539.99998" fill-opacity="1"/><g clip-path="url(#03e26e8611)"><path fill="#000000" d="M 90.105469 121.222656 C 90.105469 103.320312 104.617188 88.8125 122.519531 88.8125 L 239.195312 88.8125 C 241.121094 88.8125 242.945312 89.664062 244.175781 91.144531 L 308.996094 168.929688 C 309.96875 170.09375 310.5 171.5625 310.5 173.078125 L 310.5 205.488281 C 310.5 209.070312 307.597656 211.972656 304.019531 211.972656 C 300.4375 211.972656 297.535156 209.070312 297.535156 205.488281 L 297.535156 179.5625 L 265.125 179.5625 C 247.226562 179.5625 232.714844 165.050781 232.714844 147.148438 L 232.714844 101.773438 L 122.519531 101.773438 C 111.777344 101.773438 103.070312 110.480469 103.070312 121.222656 L 103.070312 328.648438 C 103.070312 339.390625 111.777344 348.097656 122.519531 348.097656 L 278.089844 348.097656 C 282.421875 348.097656 287.199219 345.289062 291.222656 339.875 C 295.195312 334.527344 297.535156 327.753906 297.535156 322.167969 C 297.535156 318.589844 300.4375 315.6875 304.019531 315.6875 C 307.597656 315.6875 310.5 318.589844 310.5 322.167969 C 310.5 330.902344 307.035156 340.332031 301.625 347.609375 C 296.265625 354.824219 288.078125 361.0625 278.089844 361.0625 L 122.519531 361.0625 C 104.617188 361.0625 90.105469 346.550781 90.105469 328.648438 Z M 245.679688 113.195312 L 290.179688 166.597656 L 265.125 166.597656 C 254.386719 166.597656 245.679688 157.890625 245.679688 147.148438 Z M 245.679688 113.195312 " fill-opacity="1" fill-rule="evenodd"/></g><path fill="#000000" d="M 261.882812 231.417969 C 279.785156 231.417969 294.292969 245.929688 294.292969 263.828125 C 294.292969 281.730469 279.785156 296.238281 261.882812 296.238281 L 248.917969 296.238281 C 245.339844 296.238281 242.4375 293.335938 242.4375 289.757812 L 242.4375 237.898438 C 242.4375 234.320312 245.339844 231.417969 248.917969 231.417969 Z M 281.332031 263.828125 C 281.332031 253.089844 272.625 244.382812 261.882812 244.382812 L 255.402344 244.382812 L 255.402344 283.273438 L 261.882812 283.273438 C 272.625 283.273438 281.332031 274.570312 281.332031 263.828125 Z M 281.332031 263.828125 " fill-opacity="1" fill-rule="evenodd"/><path fill="#000000" d="M 198.683594 231.417969 C 213.003906 231.417969 224.613281 243.027344 224.613281 257.347656 L 224.613281 270.3125 C 224.613281 284.632812 213.003906 296.238281 198.683594 296.238281 C 184.363281 296.238281 172.753906 284.632812 172.753906 270.3125 L 172.753906 257.347656 C 172.753906 243.027344 184.363281 231.417969 198.683594 231.417969 Z M 211.648438 257.347656 C 211.648438 250.1875 205.84375 244.382812 198.683594 244.382812 C 191.523438 244.382812 185.71875 250.1875 185.71875 257.347656 L 185.71875 270.3125 C 185.71875 277.472656 191.523438 283.273438 198.683594 283.273438 C 205.84375 283.273438 211.648438 277.472656 211.648438 270.3125 Z M 211.648438 257.347656 " fill-opacity="1" fill-rule="evenodd"/><path fill="#000000" d="M 359.117188 237.898438 C 359.117188 241.480469 356.214844 244.382812 352.632812 244.382812 L 339.667969 244.382812 L 339.667969 289.757812 C 339.667969 293.335938 336.765625 296.238281 333.1875 296.238281 C 329.609375 296.238281 326.707031 293.335938 326.707031 289.757812 L 326.707031 244.382812 L 313.742188 244.382812 C 310.160156 244.382812 307.257812 241.480469 307.257812 237.898438 C 307.257812 234.320312 310.160156 231.417969 313.742188 231.417969 L 352.632812 231.417969 C 356.214844 231.417969 359.117188 234.320312 359.117188 237.898438 Z M 359.117188 237.898438 " fill-opacity="1" fill-rule="evenodd"/></svg> -->

<svg xmlns="http://www.w3.org/2000/svg" xmlns:xlink="http://www.w3.org/1999/xlink" width="600" zoomAndPan="magnify" viewBox="0 0 450 449.999984" height="600" preserveAspectRatio="xMidYMid meet" version="1.0">
  <defs>
    <clipPath id="03e26e8611">
      <path d="M 90 88.8125 L 311 88.8125 L 311 361.0625 L 90 361.0625 Z M 90 88.8125 " clip-rule="nonzero"/>
    </clipPath>
  </defs>
  <rect x="-45" width="540" fill="#ffffff" y="-44.999998" height="539.99998" fill-opacity="1"/>
  <rect x="-45" width="540" fill="#ffffff" y="-44.999998" height="539.99998" fill-opacity="1"/>
  <g clip-path="url(#03e26e8611)">
    <path fill="#5698FB" d="M 90.105469 121.222656 C 90.105469 103.320312 104.617188 88.8125 122.519531 88.8125 L 239.195312 88.8125 C 241.121094 88.8125 242.945312 89.664062 244.175781 91.144531 L 308.996094 168.929688 C 309.96875 170.09375 310.5 171.5625 310.5 173.078125 L 310.5 205.488281 C 310.5 209.070312 307.597656 211.972656 304.019531 211.972656 C 300.4375 211.972656 297.535156 209.070312 297.535156 205.488281 L 297.535156 179.5625 L 265.125 179.5625 C 247.226562 179.5625 232.714844 165.050781 232.714844 147.148438 L 232.714844 101.773438 L 122.519531 101.773438 C 111.777344 101.773438 103.070312 110.480469 103.070312 121.222656 L 103.070312 328.648438 C 103.070312 339.390625 111.777344 348.097656 122.519531 348.097656 L 278.089844 348.097656 C 282.421875 348.097656 287.199219 345.289062 291.222656 339.875 C 295.195312 334.527344 297.535156 327.753906 297.535156 322.167969 C 297.535156 318.589844 300.4375 315.6875 304.019531 315.6875 C 307.597656 315.6875 310.5 318.589844 310.5 322.167969 C 310.5 330.902344 307.035156 340.332031 301.625 347.609375 C 296.265625 354.824219 288.078125 361.0625 278.089844 361.0625 L 122.519531 361.0625 C 104.617188 361.0625 90.105469 346.550781 90.105469 328.648438 Z M 245.679688 113.195312 L 290.179688 166.597656 L 265.125 166.597656 C 254.386719 166.597656 245.679688 157.890625 245.679688 147.148438 Z M 245.679688 113.195312 " fill-opacity="1" fill-rule="evenodd"/>
  </g>
  <path fill="#5698FB" d="M 261.882812 231.417969 C 279.785156 231.417969 294.292969 245.929688 294.292969 263.828125 C 294.292969 281.730469 279.785156 296.238281 261.882812 296.238281 L 248.917969 296.238281 C 245.339844 296.238281 242.4375 293.335938 242.4375 289.757812 L 242.4375 237.898438 C 242.4375 234.320312 245.339844 231.417969 248.917969 231.417969 Z M 281.332031 263.828125 C 281.332031 253.089844 272.625 244.382812 261.882812 244.382812 L 255.402344 244.382812 L 255.402344 283.273438 L 261.882812 283.273438 C 272.625 283.273438 281.332031 274.570312 281.332031 263.828125 Z M 281.332031 263.828125 " fill-opacity="1" fill-rule="evenodd"/>
  <path fill="#5698FB" d="M 198.683594 231.417969 C 213.003906 231.417969 224.613281 243.027344 224.613281 257.347656 L 224.613281 270.3125 C 224.613281 284.632812 213.003906 296.238281 198.683594 296.238281 C 184.363281 296.238281 172.753906 284.632812 172.753906 270.3125 L 172.753906 257.347656 C 172.753906 243.027344 184.363281 231.417969 198.683594 231.417969 Z M 211.648438 257.347656 C 211.648438 250.1875 205.84375 244.382812 198.683594 244.382812 C 191.523438 244.382812 185.71875 250.1875 185.71875 257.347656 L 185.71875 270.3125 C 185.71875 277.472656 191.523438 283.273438 198.683594 283.273438 C 205.84375 283.273438 211.648438 277.472656 211.648438 270.3125 Z M 211.648438 257.347656 " fill-opacity="1" fill-rule="evenodd"/>
  <path fill="#5698FB" d="M 359.117188 237.898438 C 359.117188 241.480469 356.214844 244.382812 352.632812 244.382812 L 339.667969 244.382812 L 339.667969 289.757812 C 339.667969 293.335938 336.765625 296.238281 333.1875 296.238281 C 329.609375 296.238281 326.707031 293.335938 326.707031 289.757812 L 326.707031 244.382812 L 313.742188 244.382812 C 310.160156 244.382812 307.257812 241.480469 307.257812 237.898438 C 307.257812 234.320312 310.160156 231.417969 313.742188 231.417969 L 352.632812 231.417969 C 356.214844 231.417969 359.117188 234.320312 359.117188 237.898438 Z M 359.117188 237.898438 " fill-opacity="1" fill-rule="evenodd"/>
</svg>
