
<svg xmlns="http://www.w3.org/2000/svg" xmlns:xlink="http://www.w3.org/1999/xlink" width="600" zoomAndPan="magnify" viewBox="0 0 450 449.999984" height="600" preserveAspectRatio="xMidYMid meet" version="1.0">
  <defs>
    <clipPath id="edf3e3988b">
      <path d="M 76.464844 88.8125 L 348.714844 88.8125 L 348.714844 361.0625 L 76.464844 361.0625 Z M 76.464844 88.8125 " clip-rule="nonzero"/>
    </clipPath>
  </defs>
  <rect x="-45" width="540" fill="#ffffff" y="-44.999998" height="539.99998" fill-opacity="1"/>
  <rect x="-45" width="540" fill="#ffffff" y="-44.999998" height="539.99998" fill-opacity="1"/>
  <g clip-path="url(#edf3e3988b)">
    <path fill="#5698FB" d="M 168.832031 88.8125 C 155.4375 88.8125 144.527344 99.722656 144.527344 113.117188 L 144.527344 186.042969 L 95.175781 186.042969 C 84.871094 186.042969 76.464844 194.527344 76.464844 204.855469 L 76.464844 283.910156 C 76.464844 294.238281 84.871094 302.722656 95.175781 302.722656 L 144.527344 302.722656 L 144.527344 336.753906 C 144.527344 350.148438 155.4375 361.0625 168.832031 361.0625 L 324.40625 361.0625 C 337.800781 361.0625 348.714844 350.148438 348.714844 336.753906 L 348.714844 166.597656 C 348.714844 162.164062 346.914062 157.988281 343.878906 154.898438 L 284.121094 93.699219 C 281.003906 90.507812 276.726562 88.8125 272.34375 88.8125 Z M 168.832031 98.535156 L 270.925781 98.535156 L 270.925781 147.148438 C 270.925781 157.835938 279.6875 166.597656 290.375 166.597656 L 338.988281 166.597656 L 338.988281 336.753906 C 338.988281 344.90625 332.558594 351.335938 324.40625 351.335938 L 168.832031 351.335938 C 160.679688 351.335938 154.25 344.90625 154.25 336.753906 L 154.25 302.722656 L 252.214844 302.722656 C 262.519531 302.722656 270.925781 294.238281 270.925781 283.910156 L 270.925781 204.855469 C 270.925781 194.527344 262.519531 186.042969 252.214844 186.042969 L 154.25 186.042969 L 154.25 113.117188 C 154.25 104.964844 160.679688 98.535156 168.832031 98.535156 Z M 280.652344 104.078125 L 332.230469 156.875 L 290.375 156.875 C 284.90625 156.875 280.652344 152.621094 280.652344 147.148438 Z M 95.175781 195.765625 L 252.214844 195.765625 C 257.253906 195.765625 261.203125 199.714844 261.203125 204.855469 L 261.203125 283.910156 C 261.203125 289.046875 257.253906 293 252.214844 293 L 95.175781 293 C 90.136719 293 86.1875 289.046875 86.1875 283.910156 L 86.1875 204.855469 C 86.1875 199.714844 90.136719 195.765625 95.175781 195.765625 Z M 95.175781 195.765625 " fill-opacity="1" fill-rule="nonzero"/>
  </g>
  <path fill="#5698FB" d="M 110.496094 215.210938 C 107.8125 215.210938 105.632812 217.390625 105.632812 220.074219 C 105.632812 236.28125 105.632812 252.484375 105.632812 268.691406 C 105.632812 271.375 107.8125 273.550781 110.496094 273.550781 C 113.179688 273.550781 115.355469 271.375 115.355469 268.691406 L 115.355469 254.105469 L 125.078125 254.105469 C 135.765625 254.105469 144.527344 245.34375 144.527344 234.660156 C 144.527344 223.972656 135.765625 215.210938 125.078125 215.210938 Z M 115.355469 224.9375 L 125.078125 224.9375 C 130.546875 224.9375 134.800781 229.191406 134.800781 234.660156 C 134.800781 240.128906 130.546875 244.382812 125.078125 244.382812 L 115.355469 244.382812 Z M 115.355469 224.9375 " fill-opacity="1" fill-rule="nonzero"/>
  <path fill="#5698FB" d="M 159.109375 215.210938 C 156.425781 215.210938 154.25 217.390625 154.25 220.074219 L 154.25 268.691406 C 154.25 271.375 156.425781 273.550781 159.109375 273.550781 L 163.289062 273.550781 C 179.671875 273.550781 193.140625 260.535156 193.140625 244.382812 C 193.140625 228.226562 179.671875 215.210938 163.289062 215.210938 Z M 163.972656 225.0625 C 174.9375 225.441406 183.417969 233.824219 183.417969 244.382812 C 183.417969 254.941406 174.9375 263.324219 163.972656 263.703125 Z M 163.972656 225.0625 " fill-opacity="1" fill-rule="nonzero"/>
  <path fill="#5698FB" d="M 207.726562 215.210938 C 205.042969 215.210938 202.863281 217.390625 202.863281 220.074219 C 202.863281 236.28125 202.863281 252.484375 202.863281 268.691406 C 202.863281 271.375 205.042969 273.550781 207.726562 273.550781 C 210.410156 273.550781 212.589844 271.375 212.589844 268.691406 L 212.589844 248.609375 L 236.894531 248.609375 C 239.582031 248.609375 241.757812 246.433594 241.757812 243.75 C 241.757812 241.066406 239.582031 238.886719 236.894531 238.886719 L 212.589844 238.886719 L 212.589844 224.9375 L 236.894531 224.9375 C 239.582031 224.9375 241.757812 222.757812 241.757812 220.074219 C 241.757812 217.390625 239.582031 215.210938 236.894531 215.210938 Z M 207.726562 215.210938 " fill-opacity="1" fill-rule="nonzero"/>
</svg>
