<svg xmlns="http://www.w3.org/2000/svg" xmlns:xlink="http://www.w3.org/1999/xlink" width="500" zoomAndPan="magnify" viewBox="0 0 375 374.999991" height="500" preserveAspectRatio="xMidYMid meet" version="1.0"><path fill="#5698FB" d="M 120.007812 192.554688 C 88.773438 196.261719 60.703125 225.109375 65.257812 261.492188 C 69.148438 292.523438 98.132812 320.511719 134.5 315.792969 C 165.457031 311.777344 193.007812 282.890625 188.457031 246.488281 C 184.632812 215.726562 155.671875 188.320312 120.007812 192.550781 Z M 257.359375 107.417969 C 285.335938 104.246094 308.726562 127.101562 311.273438 151.640625 C 314.21875 180.175781 291.996094 203.273438 267.035156 205.964844 C 238.660156 209.03125 215.410156 186.6875 212.773438 161.839844 C 209.695312 132.742188 232.003906 110.292969 257.367188 107.417969 Z M 257.011719 114.378906 C 234.355469 117.433594 216.527344 135.789062 219.71875 162.308594 C 222.378906 184.425781 241.921875 202.210938 267.566406 199.023438 C 289.605469 196.285156 307.492188 176.699219 304.363281 151.292969 C 301.683594 129.542969 282.164062 110.984375 257.011719 114.378906 Z M 133.347656 57.65625 C 157.078125 54.480469 175.949219 73.664062 178.566406 93.652344 C 181.695312 117.429688 162.941406 136.585938 142.738281 139.207031 C 118.957031 142.292969 99.667969 123.695312 97.050781 103.339844 C 95.472656 91.039062 100.53125 78.609375 106.566406 72.21875 C 113.140625 65.257812 119.679688 59.480469 133.320312 57.65625 Z M 171.746094 103.011719 C 174.558594 82.511719 160.21875 66.96875 142.667969 64.535156 C 122.117188 61.675781 106.347656 75.988281 103.933594 93.5625 C 101.070312 114.371094 115.457031 130.097656 133.21875 132.390625 C 153.980469 135.09375 169.289062 120.910156 171.75 103.011719 Z M 147.746094 242.878906 C 145.820312 253.339844 136.613281 265.84375 124.261719 264.011719 C 114.585938 262.574219 104.585938 250.09375 105.214844 238.289062 C 105.820312 226.984375 116.726562 216.488281 129.125 218.046875 C 140.109375 219.4375 150.078125 230.171875 147.742188 242.875 Z M 123.867188 225.035156 C 133.046875 223.339844 140.230469 229.140625 141.136719 237.332031 C 142.113281 246.199219 136.484375 254.699219 130.160156 256.757812 C 113.371094 262.234375 102.789062 228.921875 123.867188 225.035156 Z M 257.472656 128.074219 C 232.621094 135.828125 248.535156 171.003906 266.496094 164.261719 C 273.3125 161.707031 281.355469 151.765625 279.214844 141.476562 C 277.476562 133.058594 268.003906 124.773438 257.472656 128.066406 Z M 258.046875 134.941406 C 251.089844 137.703125 250.011719 143.992188 252.292969 150.164062 C 258.136719 165.941406 275.386719 155.894531 272.367188 142.050781 C 271.113281 136.332031 264.90625 132.222656 258.046875 134.941406 Z M 96.332031 295.957031 C 90.808594 294.976562 93.175781 289.019531 95.035156 285.539062 C 103.972656 268.609375 130.859375 259.789062 150.226562 275.703125 C 155.507812 280.035156 165.992188 292.722656 158.144531 295.421875 C 153.25 295.128906 154.5 291.941406 152.382812 287.84375 C 145.351562 274.234375 121.714844 268.558594 107.167969 281.128906 C 96.546875 290.292969 102.523438 294.816406 96.359375 295.957031 Z M 257.378906 173.652344 C 264.707031 172.183594 271.082031 174.128906 276.132812 177.707031 C 285.15625 184.101562 281.039062 191.917969 287.207031 189.675781 C 293.582031 187.363281 284.632812 169.914062 266.636719 166.710938 C 242.265625 162.371094 227.394531 191.066406 238.296875 190.15625 C 241.980469 189.851562 241.167969 186.074219 242.933594 182.925781 C 245.367188 178.554688 250.933594 174.921875 257.375 173.648438 Z M 136.191406 74.207031 C 129.375 75.546875 122.800781 82.003906 124.710938 90.527344 C 126.101562 96.757812 132.207031 104.734375 139.910156 103.273438 C 145.976562 102.125 152.382812 94.292969 151.667969 86.46875 C 151.054688 79.804688 143.746094 72.71875 136.1875 74.203125 Z M 131.265625 88.742188 C 131.960938 98.765625 143.960938 99.449219 144.828125 88.722656 C 145.71875 77.886719 130.511719 78.226562 131.265625 88.742188 Z M 133.609375 105.1875 C 120.683594 107.917969 113.316406 120.675781 118.613281 123.539062 C 121.351562 125.019531 122.953125 123.042969 123.738281 120.757812 C 124.71875 117.90625 125.425781 116.628906 127.214844 115.101562 C 130.472656 112.34375 136.257812 110.695312 141.589844 111.882812 C 146.441406 112.964844 150.285156 115.820312 151.738281 119.996094 C 154.207031 127.125 161.261719 123.375 157.667969 116.371094 C 154.300781 109.808594 144.425781 102.894531 133.609375 105.191406 Z M 215.730469 194.324219 C 215.75 189.34375 220.082031 188.136719 222.578125 191.253906 C 223.5 194.90625 222.230469 197.125 217.011719 196.261719 C 216.847656 199.664062 215.246094 200.410156 212.945312 202.015625 C 211.207031 203.234375 208.984375 204.816406 207.265625 206.042969 C 202.933594 209.132812 198.082031 214.046875 194.945312 212.199219 C 189.226562 208.847656 198.890625 203.652344 202.414062 201.175781 C 207.542969 197.574219 211.296875 193.4375 215.726562 194.320312 Z M 193.164062 125.660156 C 189.617188 127.746094 192.53125 133.84375 197.027344 131.414062 C 200.578125 129.5 197.789062 122.917969 193.164062 125.660156 Z M 184.367188 119.046875 C 177.5625 118.277344 178.246094 124.183594 181.238281 125.382812 C 185.242188 126.984375 187.804688 123.339844 184.367188 119.046875 Z M 205.667969 137.839844 C 211.046875 138.75 212.503906 135.640625 209.457031 131.597656 C 204.042969 130.703125 202.847656 133.9375 205.667969 137.839844 Z M 157.816406 299.664062 C 156.550781 301.4375 153.882812 302.652344 151.882812 303.621094 C 135.851562 311.355469 118.347656 311.382812 102.21875 303.746094 C 99.832031 302.617188 97.226562 301.527344 95.910156 299.628906 C 90.097656 298.539062 78.835938 283.558594 75.738281 275.414062 C 71.0625 263.066406 70.027344 250.011719 74.300781 236.871094 C 80.964844 216.402344 99.929688 199.09375 126.535156 198.9375 C 175.414062 198.636719 198.085938 255.253906 169.929688 289.15625 C 167.996094 291.484375 161.015625 299.164062 157.816406 299.675781 Z M 157.816406 299.664062 " fill-opacity="1" fill-rule="evenodd"/></svg>