

<svg xmlns="http://www.w3.org/2000/svg" xmlns:xlink="http://www.w3.org/1999/xlink" width="600" zoomAndPan="magnify" viewBox="0 0 450 449.999984" height="600" preserveAspectRatio="xMidYMid meet" version="1.0">
  <defs>
    <clipPath id="8cd4ad319d">
      <path d="M 123.355469 87.5625 L 326.542969 87.5625 L 326.542969 362.808594 L 123.355469 362.808594 Z M 123.355469 87.5625 " clip-rule="nonzero"/>
    </clipPath>
  </defs>
  <rect x="-45" width="540" fill="#ffffff" y="-44.999998" height="539.99998" fill-opacity="1"/>
  <rect x="-45" width="540" fill="#ffffff" y="-44.999998" height="539.99998" fill-opacity="1"/>
  <g clip-path="url(#8cd4ad319d)">
    <path fill="#5698FB" d="M 278.472656 87.5625 L 140.195312 87.5625 C 130.910156 87.5625 123.355469 95.132812 123.355469 104.433594 L 123.355469 345.9375 C 123.355469 355.238281 130.910156 362.808594 140.195312 362.808594 L 309.582031 362.808594 C 318.867188 362.808594 326.421875 355.238281 326.421875 345.9375 L 326.421875 139.75 Z M 282.457031 112.816406 L 303.476562 135.703125 L 282.457031 135.703125 Z M 312.273438 345.917969 C 312.273438 347.421875 311.066406 348.632812 309.582031 348.632812 L 140.195312 348.632812 C 138.710938 348.632812 137.503906 347.421875 137.503906 345.917969 L 137.503906 104.433594 C 137.503906 102.945312 138.710938 101.734375 140.195312 101.734375 L 268.292969 101.734375 L 268.292969 142.789062 C 268.292969 146.695312 271.484375 149.859375 275.382812 149.859375 L 312.273438 149.859375 Z M 164.507812 181.753906 L 149.738281 123.464844 L 160.46875 123.464844 L 167.285156 152.589844 C 168.25 156.652344 169.164062 160.769531 169.976562 164.589844 C 170.875 160.679688 171.960938 156.53125 173.046875 152.46875 L 180.707031 123.464844 L 190.542969 123.464844 L 197.550781 152.660156 C 198.445312 156.480469 199.34375 160.40625 200.101562 164.207031 C 200.894531 160.835938 201.757812 157.363281 202.640625 153.785156 L 202.96875 152.488281 L 210.558594 123.464844 L 221.066406 123.464844 L 204.570312 181.769531 L 194.738281 181.769531 L 187.507812 151.832031 C 186.609375 148.148438 185.832031 144.777344 185.175781 141.492188 C 184.433594 144.777344 183.554688 148.132812 182.46875 151.898438 L 174.324219 181.769531 L 164.507812 181.769531 Z M 229.160156 169.375 L 292.484375 169.375 C 295.398438 169.375 297.78125 171.746094 297.78125 174.683594 C 297.78125 177.605469 295.398438 179.988281 292.484375 179.988281 L 229.160156 179.988281 C 226.242188 179.988281 223.863281 177.605469 223.863281 174.683594 C 223.863281 171.746094 226.242188 169.375 229.160156 169.375 Z M 297.78125 210.136719 C 297.78125 213.074219 295.398438 215.445312 292.484375 215.445312 L 160.691406 215.445312 C 157.777344 215.445312 155.394531 213.074219 155.394531 210.136719 C 155.394531 207.199219 157.777344 204.832031 160.691406 204.832031 L 292.484375 204.832031 C 295.398438 204.832031 297.78125 207.199219 297.78125 210.136719 Z M 297.78125 241.5625 C 297.78125 244.484375 295.398438 246.871094 292.484375 246.871094 L 160.691406 246.871094 C 157.777344 246.871094 155.394531 244.484375 155.394531 241.5625 C 155.394531 238.625 157.777344 236.238281 160.691406 236.238281 L 292.484375 236.238281 C 295.398438 236.238281 297.78125 238.625 297.78125 241.5625 Z M 297.78125 272.972656 C 297.78125 275.910156 295.398438 278.277344 292.484375 278.277344 L 160.691406 278.277344 C 157.777344 278.277344 155.394531 275.910156 155.394531 272.972656 C 155.394531 270.050781 157.777344 267.664062 160.691406 267.664062 L 292.484375 267.664062 C 295.398438 267.664062 297.78125 270.050781 297.78125 272.972656 Z M 297.78125 304.832031 C 297.78125 307.769531 295.398438 310.15625 292.484375 310.15625 L 160.691406 310.15625 C 157.777344 310.15625 155.394531 307.769531 155.394531 304.832031 C 155.394531 301.910156 157.777344 299.523438 160.691406 299.523438 L 292.484375 299.523438 C 295.398438 299.523438 297.78125 301.910156 297.78125 304.832031 Z M 297.78125 304.832031 " fill-opacity="1" fill-rule="nonzero"/>
  </g>
</svg>
