<svg version="1.2" xmlns="http://www.w3.org/2000/svg" viewBox="0 0 91 109" width="91" height="109"><defs><clipPath clipPathUnits="userSpaceOnUse" id="cp1"><path d="m-21 0h112v108.14h-112z"/></clipPath></defs><style>.a{fill:#fff}</style><g clip-path="url(#cp1)"><path class="a" d="m8.8 89.2q-0.2-0.5-0.7-0.7-0.4-0.3-1-0.3-1.1 0-1.8 0.7-0.6 0.7-0.6 1.9 0 1.3 0.7 2 0.7 0.7 1.8 0.7 0.9 0 1.4-0.4 0.6-0.4 0.8-1.2h-2.8v-1.6h4.8v2q-0.2 0.8-0.8 1.6-0.6 0.7-1.5 1.1-0.9 0.5-2 0.5-1.4 0-2.4-0.6-1.1-0.6-1.7-1.7-0.5-1-0.5-2.4 0-1.3 0.5-2.4 0.6-1 1.7-1.6 1-0.6 2.4-0.6 1.6 0 2.7 0.8 1.1 0.8 1.5 2.2h-2.5z"/><path class="a" d="m14.9 88.1v1.8h2.9v1.7h-2.9v2h3.3v1.8h-5.5v-9.1h5.5v1.8z"/><path class="a" d="m21.1 95.2q-0.8-0.4-1.2-1-0.5-0.6-0.5-1.5h2.3q0.1 0.5 0.4 0.7 0.3 0.3 0.7 0.3 0.5 0 0.8-0.2 0.3-0.2 0.3-0.7 0-0.3-0.2-0.5-0.3-0.2-0.6-0.4-0.3-0.1-0.9-0.3-0.9-0.3-1.5-0.5-0.5-0.3-0.9-0.8-0.4-0.6-0.4-1.4 0-1.3 0.9-2 0.9-0.8 2.4-0.8 1.5 0 2.4 0.8 0.9 0.7 1 2h-2.4q0-0.5-0.3-0.7-0.3-0.3-0.8-0.3-0.4 0-0.6 0.2-0.3 0.3-0.3 0.7 0 0.4 0.4 0.6 0.5 0.3 1.3 0.6 0.9 0.3 1.5 0.6 0.5 0.2 0.9 0.7 0.4 0.6 0.4 1.4 0 0.8-0.4 1.4-0.4 0.6-1.1 1-0.8 0.4-1.8 0.4-1 0-1.8-0.3z"/><path class="a" d="m34.1 86.3v1.8h-2.4v7.3h-2.2v-7.3h-2.4v-1.8z"/><path class="a" d="m37.4 86.3v9.1h-2.2v-9.1z"/><path fill-rule="evenodd" class="a" d="m40.9 94.9q-1.1-0.6-1.7-1.7-0.6-1.1-0.6-2.4 0-1.3 0.6-2.4 0.6-1.1 1.7-1.7 1.1-0.5 2.3-0.5 1.3 0 2.4 0.5 1.1 0.6 1.7 1.7 0.6 1.1 0.6 2.4 0 1.3-0.6 2.4-0.7 1.1-1.7 1.7-1.1 0.6-2.4 0.6-1.2 0-2.3-0.6zm4.1-2.2q0.6-0.7 0.6-1.9 0-1.2-0.6-1.9-0.7-0.7-1.8-0.7-1 0-1.7 0.7-0.6 0.7-0.6 1.9 0 1.2 0.6 1.9 0.7 0.8 1.7 0.8 1.1 0 1.8-0.8z"/><path class="a" d="m57.2 95.4h-2.2l-3.7-5.6v5.6h-2.2v-9.1h2.2l3.7 5.6v-5.6h2.2z"/><path fill-rule="evenodd" class="a" d="m64.4 93.8h-3.4l-0.5 1.6h-2.3l3.3-9.1h2.5l3.3 9.1h-2.3zm-0.6-1.7l-1.1-3.4-1.1 3.4z"/><path class="a" d="m16.6 47.9q-0.2-0.1-0.3-0.1c-8.7 0-15.8 7.2-15.8 16 0 8.9 7.1 16 15.8 16q0.1 0 0.3 0z"/><path class="a" d="m33.5 79.8v-13.2c0-0.8-0.7-1.4-1.5-1.4h-13.1z"/><path class="a" d="m26.2 62.5c4 0 7.2-3.3 7.2-7.3 0-4.1-3.2-7.3-7.2-7.3-4 0-7.3 3.2-7.3 7.3 0 4 3.3 7.3 7.3 7.3z"/><path class="a" d="m33.3 10.4l-16.3 15.5-16.4-15.5v29.1c0 1.7 1.4 3.2 3.2 3.2h26.4c1.7 0 3.1-1.5 3.1-3.2v-29.1z"/><path class="a" d="m54.4 42.4c9.1 0 16.4-7.4 16.4-16.5 0-9.1-7.3-16.5-16.4-16.5-9 0-16.4 7.4-16.4 16.5 0 9.1 7.4 16.5 16.4 16.5z"/><path class="a" d="m64.6 48.2v29c0 0.5-0.7 0.7-1 0.3l-21.1-30.1h-0.1v32.9h24v-32.1c0-0.5-0.4-0.8-0.8-0.8h-0.2c-0.4 0-0.8 0.3-0.8 0.8z"/></g></svg>